<svg xmlns="http://www.w3.org/2000/svg" xmlns:xlink="http://www.w3.org/1999/xlink" width="1144" height="600" viewBox="0 0 1144 600"><defs><path id="a" d="M410.85 1919h-66.87L81.56 2063.56l10.1-12.72-63.11-22.31-17.55 4.46-11 138.68v88.98l63.34-22.85 418.18 232.32h195.43l-549.89-280.2 95.86 18.23-16.25-85.88-79.61 5.03z"/><path id="b" d="M0 2108.03l3.27-1.53 155-313.5 75.55 41.98-185.03 250.23 475.76-222.5h470.76l-873 277.39 33.46-5.65-8.82 59.55-39.9-5.2 1044.14 280.29H584.76L38.99 2225.47l11.84 20.63L0 2267.14z"/></defs><g transform="translate(0 -1867)"><use fill="#e57700" xlink:href="#a"/></g><g transform="translate(0 -1867)"><use fill="#fff" xlink:href="#b"/></g><g transform="translate(0 -1867)"><text fill="#dc6207" dominant-baseline="text-before-edge" font-family="Helvetica, Arial, sans-serif" font-size="40" font-style="none" font-weight="700" style="line-height:52px" transform="translate(8 1989)"/></g><g transform="translate(0 -1867)"><text fill="#dc6207" dominant-baseline="text-before-edge" font-family="Helvetica, Arial, sans-serif" font-size="48" font-style="none" font-weight="700" style="line-height:52px" transform="translate(133 2288)"/></g></svg>