<svg xmlns="http://www.w3.org/2000/svg" xmlns:xlink="http://www.w3.org/1999/xlink" width="30" height="20" viewBox="0 0 30 20"><defs><path id="s0vla" d="M331.4 1620.27a6.37 6.37 0 1 1-6.37 6.37l-.03-.91c0-7.03 5.7-12.73 12.75-12.73v3.64a9.05 9.05 0 0 0-7.35 3.71c.33-.05.66-.08 1-.08zm16.4 0a6.37 6.37 0 1 1-6.38 6.37l-.03-.91c0-7.03 5.7-12.73 12.75-12.73v3.64a9.05 9.05 0 0 0-7.35 3.71c.33-.05.66-.08 1-.08z"/></defs><g><g transform="translate(-325 -1613)"><use fill="#352a33" xlink:href="#s0vla"/></g></g></svg>