<svg xmlns="http://www.w3.org/2000/svg" xmlns:xlink="http://www.w3.org/1999/xlink" width="170" height="170" viewBox="0 0 170 170"><defs><path id="6eg9a" d="M1113.88 744.57l-4.74 8.34c-.19.33-.19.73-.02 1.03l4.77 8.3c.63 1.08.82 2.34.57 3.52l-1.92 9.42a1 1 0 0 0 .32.97l7.13 6.49a5 5 0 0 1 1.58 3.13l1.08 9.58c.03.36.26.67.63.83l8.75 4c.7.31 1.33.79 1.82 1.4a2 2 0 1 1-3.1 2.51.95.95 0 0 0-.36-.27l-8.74-3.98a5 5 0 0 1-2.98-4.07l-1.07-9.56a1 1 0 0 0-.31-.62l-7.1-6.47a4.99 4.99 0 0 1-1.56-4.76l1.91-9.43a.95.95 0 0 0-.1-.68l-4.8-8.34a5.11 5.11 0 0 1 0-4.96l4.84-8.49a.63.63 0 0 0 .1-.23 2 2 0 0 1 3.94.63c-.1.6-.31 1.19-.64 1.7zm34.96-55.04c.11-.06.22-.14.3-.24l6.48-7.1a4.99 4.99 0 0 1 4.77-1.56l9.4 1.91a1 1 0 0 0 .71-.1l8.39-4.8a5.08 5.08 0 0 1 4.97.01l8.37 4.77c.21.13.47.17.73.11l9.37-1.9a5 5 0 0 1 4.78 1.54l6.45 7.11.14.12-2.23 3.32c-.3-.2-.6-.45-.86-.74l-6.47-7.13c-.24-.27-.6-.4-.99-.31l-9.38 1.9a5 5 0 0 1-3.52-.54l-8.36-4.76a1.06 1.06 0 0 0-1.03-.01l-8.37 4.78c-1.07.6-2.33.8-3.51.55l-9.41-1.92a1 1 0 0 0-.98.33l-6.48 7.11a5 5 0 0 1-1.5 1.13zm103.45 52.88c0 .03.02.06.06.13l4.78 8.4a5.08 5.08 0 0 1 0 4.96l-4.76 8.34c-.12.22-.16.47-.1.72l1.91 9.38a4.99 4.99 0 0 1-1.55 4.77l-7.15 6.5a.99.99 0 0 0-.33.6l-1.07 9.56a5.07 5.07 0 0 1-2.94 4.06l-8.79 4a1 1 0 0 0-.4.34l-3.26-2.32a4.99 4.99 0 0 1 2.02-1.66l8.77-4c.35-.16.59-.48.63-.86l1.07-9.6a4.97 4.97 0 0 1 1.64-3.1l7.14-6.5a1 1 0 0 0 .3-.97l-1.91-9.38a5 5 0 0 1 .55-3.52l4.74-8.33c.18-.32.18-.72 0-1.03l-4.74-8.34a4.53 4.53 0 0 1-.37-.79zm-72.8 69.59c0-1.1.9-2 2-2a56.5 56.5 0 1 0-49.94-30.07 2 2 0 0 1-3.54 1.88 60.09 60.09 0 0 1-7.01-28.31 60.5 60.5 0 1 1 60.5 60.5 2 2 0 0 1-2-2z"/><path id="6eg9b" d="M1110.58 742.17a.98.98 0 0 0 0-.34l-1.92-9.41a5 5 0 0 1 1.54-4.77l7.11-6.49a1 1 0 0 0 .32-.63l1.07-9.54a4.98 4.98 0 0 1 2.95-4.06l8.78-4a1 1 0 0 0 .5-.52l4-8.76a5.06 5.06 0 0 1 4.06-2.96l9.62-1.09c.08 0 .17-.03.25-.07l1.84 3.55a4.6 4.6 0 0 1-1.7.5l-9.56 1.08c-.38.05-.7.28-.86.64l-4 8.75a5 5 0 0 1-2.5 2.52l-8.8 4.01a1 1 0 0 0-.6.84l-1.07 9.55a5 5 0 0 1-1.6 3.14l-7.13 6.5c-.26.25-.38.61-.3.99l1.93 9.46a5 5 0 0 1 0 1.85zm103.27-52.73c.13.1.27.15.46.17l9.54 1.08a4.98 4.98 0 0 1 4.07 2.95l4 8.78c.1.22.28.4.52.5l8.73 4a4.99 4.99 0 0 1 2.99 4.05l1.08 9.57c.02.25.14.48.3.63l7.1 6.46a5 5 0 0 1 1.57 4.77l-1.93 9.41a.94.94 0 0 0 .05.53l-3.74 1.43a4.93 4.93 0 0 1-.22-2.77l1.92-9.42c.08-.35-.04-.72-.33-.97l-7.15-6.51a5.06 5.06 0 0 1-1.55-3.12l-1.08-9.58a1.02 1.02 0 0 0-.63-.83l-8.76-4a5 5 0 0 1-2.51-2.5l-4.02-8.8a1.01 1.01 0 0 0-.84-.6l-9.52-1.08a4.86 4.86 0 0 1-2.43-.94zm-80.07 112.14c.33.36.6.77.78 1.19l4 8.8c.16.32.47.55.87.59l9.59 1.08c1.21.16 2.33.75 3.1 1.64l6.54 7.14a1 1 0 0 0 .96.31l9.44-2a5 5 0 0 1 3.5.56l8.37 4.77c.33.18.73.18 1.04.01l1.24-.71-.02-.02 7.05-4a4.99 4.99 0 0 1 3.54-.56l9.45 1.93a1 1 0 0 0 .99-.32l6.46-7.1a5.02 5.02 0 0 1 3.17-1.67l9.58-1.07c.37-.04.68-.27.84-.63l4-8.77c.13-.29.29-.57.47-.83l3.28 2.29c-.04.06-.08.12-.11.2l-3.99 8.73a4.99 4.99 0 0 1-4.07 2.98l-9.53 1.07c-.24.03-.47.15-.65.36l-6.48 7.12a4.97 4.97 0 0 1-4.82 1.55l-9.4-1.93c-.25-.05-.5 0-.74.13l-7.03 3.98.01.02-1.28.74c-1.54.85-3.4.85-4.96-.02l-8.4-4.78a1 1 0 0 0-.69-.12l-9.42 2a4.99 4.99 0 0 1-4.77-1.54l-6.55-7.16a.99.99 0 0 0-.6-.33l-9.52-1.07a4.99 4.99 0 0 1-4.1-2.94l-4.01-8.8a.56.56 0 0 0-.1-.15z"/><path id="6eg9c" d="M1217 745.32c0-3.37-2.74-6.1-6.12-6.1h-21.19c5.7-4.6 9.57-10.77 10.13-15.85.42-3.76-2.2-7.33-5.99-7.37a6.09 6.09 0 0 0-6.18 6.07c0 2.2-4.78 8.72-13.74 11.62a8.96 8.96 0 0 0-3.73 2.45c-.76.81-2.79 3.28-4.78 4.62a2.44 2.44 0 0 0-2.27-1.54h-14.68a2.44 2.44 0 0 0-2.45 2.44v39.06c0 1.35 1.1 2.44 2.45 2.44h14.68c1.36 0 2.45-1.1 2.45-2.44h39.18a4.89 4.89 0 1 0 0-9.76h2.45a4.89 4.89 0 1 0 0-9.77h2.45a4.89 4.89 0 1 0 0-9.76h1.22a6.11 6.11 0 0 0 6.12-6.1z"/><path id="6eg9d" d="M1208.16 714.97h-3.53c-.36 0-1.06 0-1.06-.59v-2.96c0-.3.35-.3.7-.3.71 0 3.18 0 4.95.3 1.06 0 .7.89.7 2.37s-.7 1.48-1.76 1.18zm10.6-7.25c0 1.45.35 2.32-.71 2.32-2.12 0-4.6.29-5.3 0-.35 0-.35-.3-.35-.87v-2.61c0-.58.7-.3 1.06-.3h3.88c.7-.28 1.41 0 1.41 1.46zm-20.2 3.45h-3.13c-.3 0-.93 0-.93-.6v-2.95c0-.3.31-.3.62-.3.63 0 2.8 0 4.37.3.93 0 .62.89.62 2.37s-.62 1.48-1.56 1.18zm3.63-11c0 1.45.3 2.32-.63 2.32-1.87 0-4.05.29-4.67 0-.31 0-.31-.3-.31-.87V699c0-.58.62-.3.93-.3h3.43c.62-.28 1.25 0 1.25 1.46zm8.43 24.5h-3.36c-.34 0-1.01 0-1.01-.6v-2.96c0-.3.33-.3.67-.3.67 0 3.03 0 4.7.3 1.02 0 .68.9.68 2.37 0 1.48-.67 1.48-1.68 1.18zm11.33-2.48c0 1.45.34 2.32-.67 2.32-2.02 0-4.38.3-5.05 0-.33 0-.33-.29-.33-.87v-2.6c0-.59.67-.3 1-.3h3.7c.68-.29 1.35 0 1.35 1.45zm-10.34 49.84c.1 0 .1.1.1.1.56 1.02.93 2.23.93 3.45 0 3.82-3.17 7-7 7h-36.59l.56-4.48h36.03c1.4 0 2.52-1.12 2.52-2.52a2.63 2.63 0 0 0-2.61-2.52 2.27 2.27 0 0 1-2.24-2.24 2.27 2.27 0 0 1 2.24-2.24h2.42c.19 0 .38-.1.56-.1a2.42 2.42 0 0 0 1.96-2.42c0-1.4-1.12-2.52-2.52-2.52-1.3 0-2.24-.94-2.24-2.15a2.27 2.27 0 0 1 2.24-2.24h2.43c.19 0 .28-.1.47-.1l3.17 3.46a7.1 7.1 0 0 1-2.43 9.52zm-41.9-30.05v5.04a2.27 2.27 0 0 1-2.24 2.24 2.27 2.27 0 0 1-2.24-2.24v-4.76a.2.2 0 0 0-.19-.2h-14.28a.2.2 0 0 0-.19.2l-2.89-3.46a4.7 4.7 0 0 1 2.99-1.12h14.28c.74 0 1.49.19 2.14.56a33.7 33.7 0 0 0 3.08-2.8c1.31-1.4 2.9-2.42 4.58-2.98 4.29-1.4 7.18-3.64 8.86-5.23 2.06-1.96 2.9-3.64 2.99-4.1 0-.47 0-.94.1-1.4 2.05.74 3.45 1.4 4.29 2.05-.28 1.86-1.68 4.2-4.02 6.44a28.09 28.09 0 0 1-10.82 6.44 6.8 6.8 0 0 0-2.71 1.77c-.84.93-2.24 2.24-3.73 3.55z"/><path id="6eg9e" d="M1216.19 752.7c.28.47.56.94.74 1.4.28.75.47 1.6.47 2.53a6.9 6.9 0 0 1-3.36 5.97l-3.17-3.45a2.59 2.59 0 0 0 2.05-2.52 2.48 2.48 0 0 0-2.52-2.52 2.27 2.27 0 0 1-2.24-2.24 2.27 2.27 0 0 1 2.24-2.24h1.3a3.79 3.79 0 0 0 3.65-3.74 3.74 3.74 0 0 0-3.74-3.73H1191c-1.03 0-1.87-.56-2.15-1.5-.28-.93 0-1.95.75-2.51 5.04-4.11 8.58-9.52 9.05-14 .1-1.31-.28-2.62-1.12-3.55a3.26 3.26 0 0 0-2.52-1.21c-1.03 0-1.96.37-2.7 1.12a3.39 3.39 0 0 0-1.13 2.61c0 .19-.09.37-.09.56-.84-.65-2.24-1.3-4.3-2.05a8 8 0 0 1 2.25-4.3 8.44 8.44 0 0 1 5.78-2.33h.1c2.24 0 4.38.93 5.88 2.61a9.04 9.04 0 0 1 2.14 7c-.46 4.2-2.89 8.87-6.53 12.98h15.12a8.23 8.23 0 0 1 8.21 8.21c0 2.9-1.4 5.32-3.54 6.9zm-68.6-13.9l2.89 3.45v38.08c0 .1.1.19.19.19h14.18c.1 0 .19-.1.19-.19v-23.8a2.27 2.27 0 0 1 2.24-2.24 2.27 2.27 0 0 1 2.24 2.24v21.56l-.56 4.48a4.2 4.2 0 0 1-2.05 1.96c-.56.28-1.31.47-1.96.47h-14.28a4.63 4.63 0 0 1-4.67-4.39v-38.26-.19a4.8 4.8 0 0 1 1.59-3.36z"/><path id="6eg9f" d="M1157.66 771a2.34 2.34 0 0 0-2.33 2.33 2.34 2.34 0 0 0 2.33 2.34 2.34 2.34 0 0 0 2.34-2.34 2.34 2.34 0 0 0-2.34-2.33z"/></defs><g><g transform="translate(-1097 -668)"/><g transform="translate(-1097 -668)"><use fill="#e97700" xlink:href="#6eg9a"/></g><g transform="translate(-1097 -668)"><use fill="#006db5" xlink:href="#6eg9b"/></g><g transform="translate(-1097 -668)"><use fill="#fff" xlink:href="#6eg9c"/></g><g transform="translate(-1097 -668)"><use fill="#006db5" xlink:href="#6eg9d"/></g><g transform="translate(-1097 -668)"/><g transform="translate(-1097 -668)"><use fill="#e97700" xlink:href="#6eg9e"/></g><g transform="translate(-1097 -668)"><use fill="#006db5" xlink:href="#6eg9f"/></g></g></svg>