<svg xmlns="http://www.w3.org/2000/svg" xmlns:xlink="http://www.w3.org/1999/xlink" width="145" height="145" viewBox="0 0 145 145"><defs><path id="fdkha" d="M304.22 231.05c2.68-2.76 5.6 1.65 3.72 3.09-2.95 2.9-3.27 7.3-.56 10.02 5.22 5.83 5.97 6.96 11.27 12.41.76.78 2.77 2.9 1.2 4.6-1.36 1.85-3.14 3.04-4.53 4.55-2.35 2.8-6.58-.61-4.03-3.32.96-1.39 2.12-1.76 3.1-3.24-4.8-4.3-8.42-9.1-11.57-12.55-3.7-4.09-2.78-11.71 1.4-15.56"/><path id="fdkhb" d="M297.69 259.8c1.71.4 3.23-.01 4.23-2.1 1.13-2.36-1.65-6.2-4-5.58-1.27.34-2.38.68-2.92 1.97-1.16 2.73-.12 5.07 2.69 5.72zm20.96-22.02c-1.75-2.22-3.53-1.87-5.06-.71-1.53 1.14-2.75 3.43-1.02 5.37.94 1.07 2 1.98 3.46 1.7 2.87-.75 4.83-3.56 2.62-6.36z"/><path id="fdkhc" d="M334.73 349.79c1 0 1.39.24 1.36.66v3.43c0 .43.02.5-.2.51-13.76.94-24.54-.21-38.3.17-.52.01-1.42.01-2-.02-.95-.05-2.25.65-2.21-2.5 0-.43 0-1.99.43-1.96 15.33-.37 25.59-.05 40.92-.3zm-50.57.1l3.87.18c.27.02 1.05-.1 1.05.76l-.02 3.6c0 .48-.39.48-.6.56-.72.27-3.06-.05-5.03-.27-.97-.11-.68-1.3-.67-2.98.02-1.83.84-1.87 1.4-1.85zm-11.06-.35c2.22-.07 4.85-.21 5.64.12.22.08.3.48.28.95l-.07 3.36c-.05.86-.78.53-1.08.53l-4.21-.08c-.62 0-1.54-.13-1.45-1.95.07-1.69-.2-2.9.9-2.93z"/><path id="fdkhd" d="M320.04 345.67c.16-5.51.1-10.67-.48-16.17-.12-1.09-.07-2.2-.06-3.28 0-1.56.66-1.95 2.45-2.07 1.34-.1 2.93-.16 4.28-.18 1.57-.03 2.1.37 2.36 1.74-.07 1.86-.17 8.52.15 12.33.32 3.97.09 7.88.19 11.83-3.42.02-5.54.01-8.9.01v-4.21"/><path id="fdkhe" d="M303.86 325.44c.04 4.43-.4 4.73-.17 9.14.08 1.44-.82 2.75-1.7 3.8-2.15 2.57-5.19 6.46-7.63 8.92-1.27-.63-3.45-3.14-6.29-5.48-.9-.74-.57-.8.05-1.6 1.3-1.69 4.25-4.45 5.16-5.58.85-1.53 1.07-1.57 1.12-3.26.1-3.26.15-1.76.27-5.02.05-1.4-.11-1.94 1.26-1.94 2.1.01 4.3-.13 6.4-.15 1.18 0 1.52.1 1.53 1.17"/><path id="fdkhf" d="M287.34 317.89c-8.04 9.27-13.3 16.08-21.34 25.34-.63.73-1.78.8-2.53.09-6.03-4.57-17.6-13.93-22.92-19.34-.38-.32-.54-.65-.53-.9.04-1.66 21.64-25.82 23.55-26.65.65-.29.99-.28 1.6.24l4.06 3.55a669.7 669.7 0 0 1 5.7-6.04c.95-1 2.35-.9 3.46.07 3.26 2.77 7.14 7 10.3 9.77.92.82 1.23 1.46.33 2.41-1.72 1.82-3.54 4.21-5.31 6.45l3.11 2.72c1.46 1.25.94 1.8.52 2.29zm-4.5-12c-.94-.99-5.93-5.44-6.74-6.28a50.9 50.9 0 0 0-3.42 3.63l7.06 6.17zm-25.46 46.29c-2.4.17-4.7-1.14-4.78-4.12-.06-2.45 2.05-3.9 4.1-3.95 2.04-.04 4.6 1.78 4.53 3.92-.08 2.5-1.42 3.96-3.85 4.15zm-23.34-19.47c-.06-2.56 2.06-4.08 4.12-4.14 2.04-.05 4.61 1.84 4.54 4.09-.1 2.6-1.43 4.14-3.88 4.33-2.4.2-4.7-1.17-4.78-4.28z"/><path id="fdkhg" d="M329.9 283.2c-.17 10.53-.06 28.18-.45 35.4-.07 1.34-.04 1.3-1.33 1.22-9.07-.62-19.47-.13-28.83-.11-2.62 0-4-.6-3.9-3.37.07-2.05.15-3.24.1-4.9a576.9 576.9 0 0 1-.03-19.54c-3.04 2.8-5.84 6.26-8.69 9.41-.79.88-3.5 4.35-4.37 5.14-1.24 1.14-1.96.99-3.16-.12-.9-.82-2.52-2.4-3.37-3.27-1-1.04-1-1.68-.08-2.86 4.93-5.2 12.72-14.6 20.26-23.25 3.24-3.73 8.01-1.27 8.01 2.19v32.9c2.89.26 14.77 0 17.23.2.73-8.11-.1-22.4-.14-31.12-.01-2.8.72-3.52 2.4-5.27 1.85-1.92 5.08-5 6.1-5.97 4.41-4 7.9-6.96 11.83-11.44.77-.9 2.01-2.38 2.87-3.19 1.23-1.16 1.94-.32 3.16.76.92.8 2.44 2.8 3.3 3.67 1.02 1.02 1.04 1.66.13 2.85-1.49 1.34-6.3 5.44-9.08 8.5-2.65 2.91-8.5 8.72-11.96 12.18"/></defs><g><g transform="translate(-220 -220)"/><g transform="translate(-220 -220)"><use fill="#fefefe" xlink:href="#fdkha"/></g><g transform="translate(-220 -220)"><use fill="#fefefe" xlink:href="#fdkhb"/></g><g transform="translate(-220 -220)"><use fill="#fefefe" xlink:href="#fdkhc"/></g><g transform="translate(-220 -220)"><use fill="#fefefe" xlink:href="#fdkhd"/></g><g transform="translate(-220 -220)"><use fill="#fefefe" xlink:href="#fdkhe"/></g><g transform="translate(-220 -220)"><use fill="#fefefe" xlink:href="#fdkhf"/></g><g transform="translate(-220 -220)"><use fill="#fefefe" xlink:href="#fdkhg"/></g></g></svg>