<svg xmlns="http://www.w3.org/2000/svg" xmlns:xlink="http://www.w3.org/1999/xlink" width="69" height="50" viewBox="0 0 69 50"><defs><path id="a" d="M108.83 3795.06a8.67 8.67 0 0 1 6.76 2.24c2.64 2.45 3.26 6.57 1.74 9.13-1.45 2.44-2.89 4.25-5.88 4.51-6.37.56-9.9-2.8-9.4-8.64.28-3.55 1.84-6.58 6.78-7.24zm2.29 13.98c2.28-.23 3.36-1.58 4.47-3.45 1.15-1.92.68-5.08-1.33-6.94a6.65 6.65 0 0 0-5.14-1.7c-3.78.49-4.94 2.8-5.17 5.51-.37 4.45 2.32 7.01 7.17 6.58z"/><path id="b" d="M52 3811.16c-.02.7.33.76.57.76l1.64.04c.11 0 .39.12.41-.21l.02-1.31c.02-.18-.02-.32-.1-.37-.31-.12-1.33-.06-2.19-.04-.43 0-.33.47-.35 1.13zm4.1-.29c0 .66-.12 1.11.25 1.15.77.08 1.68.21 1.94.1.08-.02.23-.04.23-.2v-1.39c0-.33-.31-.29-.41-.29l-1.5-.06c-.18-.02-.49-.02-.51.69zm4.28-.63c-.16-.02-.16.59-.16.76-.02 1.23.49.96.86.98.22.02.45.02.65 0 1.34-.04 2.73.04 4.06.06 2.89.04 23.79-.22 26.68-.14.13 0 6.85.06 6.99.02.08-.02.08-.04.08-.21v-1.33c0-.31-.43-.24-.53-.26-.23-.02-6.82.04-7.07.02-4.53-.15-27.05-.02-31.56.1z"/><path id="c" d="M114.76 3767.01c1.48-.13 1.23 1.9.31 1.84-1.6.1-2.81 1.31-2.7 2.81.06 3.03 0 3.56.18 6.51.02.43.08 1.56-.82 1.66-.86.21-1.7.11-2.48.19-1.39.22-1.78-1.85-.35-2.01.64-.16 1.07.02 1.73-.16-.33-2.48-.19-4.82-.23-6.62-.06-2.15 2.15-4.16 4.36-4.22"/><path id="d" d="M95.03 3762.33c-1.07-1.05-2.16.69-1.42 1.23 1.17 1.1 1.33 2.8.31 3.87-1.97 2.32-2.26 2.77-4.26 4.92-.29.31-1.05 1.15-.41 1.8.55.7 1.25 1.15 1.8 1.72.94 1.07 2.54-.3 1.54-1.33-.39-.53-.84-.65-1.23-1.23 1.82-1.72 3.17-3.61 4.36-4.98 1.42-1.6.97-4.55-.69-6"/><path id="e" d="M78.79 3801.39c.47 5.8-3.85 9.59-10.14 9.04-4.27-.39-6.79-4.79-6.64-8.87.16-4.82 4.46-8.12 9.22-7.48 4.89.63 7.27 3.81 7.56 7.31zm-1.91.19c-.22-2.69-2.23-5.12-5.96-5.62-3.67-.49-6.97 1.99-7.07 5.72-.08 3.16 1.86 6.58 5.08 6.87 4.84.43 8.32-2.59 7.95-6.97z"/><path id="f" d="M81.27 3800.21c-.49.45-1.51 1.6-2.13 2.21-.22.23-.16.31.06.52l1.99 1.8c.35.33.74.63 1.07.29 1.66-1.68 6.16-7.46 7-7.96.17-.06.39-.55.29-.67-.61-.8-1.56-1.66-2.33-2.28-.31-.22-.64-.14-.84.25-1.13 1.07-4 4.65-5.11 5.84"/><path id="g" d="M114.43 3773.77c-.47-.31-.56-.86-.56-1.42.02-1 .97-1.33 1.71-1.27.73.08 1.35.45 1.27 1.54-.11 1.39-1.4 1.68-2.42 1.15zm-8.38-2.67c.49-.22.9-.04 1.35.21.84.43.63 2.25-.31 2.64-.84.33-1.37.04-1.76-.51-.64-.92-.33-1.87.72-2.34z"/><path id="h" d="M96.98 3806.32c.02.76 2.71.33 3.5.33.44 0 .37.08.39-.33.13-1.74.05-5.68.05-7.89.02-1.91-.31-1.48-1.38-2.95-2.11-2.54-2.97-2.73-5.14-5.43 2.03-1.87 3.75-3.71 5.84-5.49 1.15-.82.98-1.13 2.29-.04 2.24 1.94 2.42 2.97 4.55 5.02.47.41.64.53 1.25.53l3.73-.04c.84-.04.68-.47-.18-1.17-.76-.63-1.44-1.41-2.42-2.32-2.01-1.84-3.85-4.11-5.7-6.12-1.94-2.19-2.82-1.46-4.18-.37-3.19 2.72-7.62 6.7-10.47 9.57-.2.2-.14.96.31 1.45 2.72 2.87 4.08 4.37 6.78 6.93.97.92.6.61.72 1.64.06 1.17.02 5.51.06 6.68"/><path id="i" d="M109.14 3802.85c0 .12.8.12.94.12 1.09-.02.86-.41.86-.7.03-.18 0-.36 0-.53-.04-1.06.03-2.15.05-3.22.02-2.29-.21-2.52-.17-4.81l.02-.86c.76.02 1.79.02 1.87 0 .08-.02.08-.02.08-.21v-1.33c0-.31-.43-.24-.53-.27-.25-.02-2.59.05-2.83.03-4.53-.15-6.4-.03-10.9.08-.62-.04-.64.08-.35.49.35.49.82.86 1 1.06.23.25.47.19.8.19 1.33-.04 2.62.04 3.98.06 2.52.04 3.01-.14 5.02-.16.02.57.02 1.25.02 1.35-.1 3.63.02 5.14.14 8.71"/><path id="j" d="M55.64 3783.95c-.58.2-.91.32-1.36.41-1.12.2-1.92-.37-2.52-1.25a97.15 97.15 0 0 1-1.76-2.83c.8-.04 1.64.12 2.48.29l-.49-2.03c.92.14 1.56.51 2.4.86-.17-.7-.27-1.62-.44-2.4 1.36.12 3.08 1.82 3.14 3.11.04.7-.16 1.5-.61 2.63.75.76 2.8 2.62 3.97 2.81a4.42 4.42 0 0 1-1.15-4.39c2.22.72 2.79 2.46 2.34 4.51.72.53 2.19.63 3.11.9l.02 1.52c-3.15-.25-6.98-1.52-9.13-4.14"/><path id="k" d="M90.43 3767.1c-1.13-.27-1.91-1.36-1.09-2.44.66-.88 1.35-.76 1.97-.33.59.43 1.1 1.31.45 2.07-.37.41-.76.78-1.33.7"/><path id="l" d="M97.77 3772.99c-.66.17-1.25.02-1.66-.77-.45-.91.57-2.42 1.5-2.2.49.13.92.25 1.14.74.5 1.05.11 1.97-.98 2.23"/><path id="m" d="M85.22 3792.92c-2.24-1.99-3.47-3.22-4.96-4.24 1.72.02 2.09-.15 4.1-.19 1.2-.2 1.74-1.19 2.21-1.78 1.78-2.26 5.02-5.1 6.92-7.28 1.05-1.27-.49-1.25-.71-1.27-2.01-.14-5.35-.06-8.79.02-4.86-.06-11.75-.08-12.34-.18-.88.12-.7.53-.43.92.39.6 1.56 1.66 2.23 2.54.15.19.27.27.41.33l.02.06c1.4.04 2.81.02 4.21-.02l7.84.1c-.53.72-1.8 2.22-2.46 2.81-.53.47-.49.49-1 .56-2.64.16-6.29.06-9.22.49-.8.12-.68.55-.12 1.21 1.72 2.05 7.19 6.57 9.05 8.52 1.17 1.21-.75-.68.41.53.39.41.66-.04 1.01-.39l1.78-2.09c.27-.41.18-.34-.16-.65"/><path id="n" d="M69.01 3801.48c-.1.1.47.66.58.76.8.74.92.24 1.16.02 1.13-1.11.25-.31 1.32-1.48 1.14-1.27 4.59-4.75 5.69-6.41.1-.16.19-.18.02-.33l-1.06-.98c-.21-.19-.43.12-.49.2-.15.15-2.12 2.38-2.26 2.52-2.83 2.91-2.31 2.65-4.96 5.7"/><path id="o" d="M92.03 3806.84c-.53.49-2.27-1.92-2.8-2.46-.29-.28-.31-.18-.02-.49 1.49-1.66 4.03-4.1 4.48-4.75.7-.5.88.47.95.9.12.65.04 2.17.16 3.22.04.43-.08.59-.41.84-.8.75-1.54 1.98-2.36 2.74"/></defs><g transform="translate(-50 -3762)"><use fill="#e97700" xlink:href="#a"/></g><g transform="translate(-50 -3762)"><use fill="#e97700" xlink:href="#b"/></g><g transform="translate(-50 -3762)"><use fill="#e97700" xlink:href="#c"/></g><g transform="translate(-50 -3762)"><use fill="#e97700" xlink:href="#d"/></g><g transform="translate(-50 -3762)"><use fill="#e97700" xlink:href="#e"/></g><g transform="translate(-50 -3762)"><use fill="#e97700" xlink:href="#f"/></g><g transform="translate(-50 -3762)"><use fill="#008f37" xlink:href="#g"/></g><g transform="translate(-50 -3762)"><use fill="#008f37" xlink:href="#h"/></g><g transform="translate(-50 -3762)"><use fill="#008f37" xlink:href="#i"/></g><g transform="translate(-50 -3762)"><use fill="#008f37" xlink:href="#j"/></g><g transform="translate(-50 -3762)"><use fill="#008f37" xlink:href="#k"/></g><g transform="translate(-50 -3762)"><use fill="#008f37" xlink:href="#l"/></g><g transform="translate(-50 -3762)"><use fill="#008f37" xlink:href="#m"/></g><g transform="translate(-50 -3762)"><use fill="#008f37" xlink:href="#n"/></g><g transform="translate(-50 -3762)"><use fill="#008f37" xlink:href="#o"/></g></svg>