<svg xmlns="http://www.w3.org/2000/svg" xmlns:xlink="http://www.w3.org/1999/xlink" width="48" height="50" viewBox="0 0 48 50"><defs><path id="a" d="M167.49 3762.36c1.07-1.11 2.24.65 1.48 1.24-1.18 1.15-1.31 2.91-.22 4 2.09 2.32 2.39 2.78 4.5 4.95.31.31 1.11 1.16.48 1.85-.54.74-1.26 1.22-1.8 1.83-.94 1.11-2.64-.24-1.61-1.33.39-.54.84-.69 1.24-1.28-1.92-1.72-3.37-3.63-4.63-5.02-1.48-1.65-1.11-4.7.56-6.24"/><path id="b" d="M171.6 3767.19c-.59.11-1.03-.26-1.4-.67-.69-.79-.19-1.7.42-2.15.61-.46 1.32-.61 2.02.28.89 1.11.11 2.24-1.04 2.54zm-8.42 3.96c.22-.5.68-.65 1.18-.78.95-.24 2.06 1.3 1.61 2.23-.42.85-1.03 1-1.7.85-1.13-.26-1.54-1.19-1.09-2.3z"/><path id="c" d="M154 3811.21c-.02.74.35.78.59.8l1.67.03c.13 0 .41.13.44-.22l.02-1.35c.02-.2-.02-.35-.11-.39-.33-.13-1.37-.07-2.26-.04-.44.02-.33.5-.35 1.17zm4.22-.28c0 .67-.13 1.15.26 1.19.78.09 1.72.22 2.02.11.09-.02.24-.02.24-.22v-1.43c0-.35-.3-.28-.41-.31l-1.55-.06c-.21-.02-.56-.02-.56.72zm4.41-.66c-.17-.02-.17.61-.17.79-.02 1.26.5.98.87 1 .24.02.58.02.8 0 5.5-.15 9.81.3 15.31-.07.08 0 .08-.02.08-.19v-1.37c0-.18-.15-.26-.54-.26-6.13.08-10.22-.05-16.35.1z"/><path id="d" d="M173.22 3808.65c.07-2.19.05-4.26-.19-6.45-.05-.44-.02-.87-.02-1.31 0-.63.26-.78.97-.82.55-.05 1.18-.07 1.72-.07.63-.02.85.15.94.7-.03.74-.07 3.39.06 4.93.13 1.59.04 3.15.09 4.72h-3.55c-.02-.52-.02-1.04-.02-1.7"/><path id="e" d="M167.53 3800.46c.02 1.76-.15 1.89-.06 3.65.02.57-.33 1.09-.68 1.52-.84 1.03-2.06 2.59-3.04 3.57-.5-.24-1.37-1.26-2.52-2.2-.37-.3-.24-.32.02-.63.52-.67 1.7-1.78 2.07-2.21.34-.61.43-.63.45-1.31.05-1.3.07-.69.11-2 .02-.56-.04-.78.5-.78.83 0 1.72-.04 2.57-.07.43-.02.58.03.58.46"/><path id="f" d="M140.91 3804.37c.98-.07 1.5-.7 1.55-1.74.04-.89-1-1.65-1.81-1.63-.82.02-1.67.63-1.65 1.65.02 1.26.96 1.81 1.91 1.72zm8.94 4.39c.04-.85-1-1.59-1.81-1.56-.8.02-1.65.6-1.63 1.58.05 1.2.96 1.72 1.92 1.66.97-.07 1.5-.66 1.52-1.68zm7.41-15.41l-2.82-2.46c.41-.5.86-.98 1.36-1.45.33.32 2.33 2.1 2.7 2.5zm2.83 2.48l-1.24-1.09c.72-.89 1.43-1.85 2.13-2.57.37-.37.24-.63-.13-.95-1.26-1.11-2.81-2.81-4.11-3.92-.44-.39-1-.41-1.39-.02-.57.59-1.46 1.55-2.28 2.42l-1.63-1.42c-.24-.21-.37-.21-.64-.08-.76.32-9.39 9.97-9.41 10.65 0 .11.07.24.22.37 2.13 2.15 6.74 5.89 9.15 7.72a.7.7 0 0 0 1.02-.05c3.22-3.69 5.31-6.41 8.52-10.13.16-.22.37-.43-.21-.93z"/><path id="g" d="M177.88 3783.39c-.06 4.2-.02 11.27-.17 14.14-.02.54-.02.52-.52.47-3.63-.24-7.79-.04-11.52-.04-1.05 0-1.59-.24-1.57-1.35.02-.82.07-1.28.04-1.95-.06-2.27-.04-5.55-.02-7.81-1.22 1.11-2.32 2.5-3.48 3.76-.32.35-1.39 1.74-1.74 2.05-.5.45-.78.39-1.26-.05-.37-.32-1-.95-1.34-1.3-.4-.42-.4-.68-.03-1.13 1.96-2.09 5.09-5.83 8.09-9.29 1.31-1.5 3.2-.5 3.2.87v13.16c1.15.11 5.89 0 6.89.08.28-3.24-.05-8.95-.07-12.43 0-1.11.29-1.41.96-2.11.74-.76 2.02-2 2.43-2.39 1.77-1.61 3.16-2.78 4.72-4.57.31-.34.81-.95 1.15-1.28.48-.46.79-.13 1.26.31.37.32.98 1.13 1.33 1.47.41.42.41.66.04 1.13-.58.55-2.52 2.18-3.63 3.4-1.04 1.17-3.37 3.47-4.76 4.86"/></defs><g transform="translate(-139 -3762)"><use fill="#e97700" xlink:href="#a"/></g><g transform="translate(-139 -3762)"><use fill="#981477" xlink:href="#b"/></g><g transform="translate(-139 -3762)"><use fill="#e97700" xlink:href="#c"/></g><g transform="translate(-139 -3762)"><use fill="#981477" xlink:href="#d"/></g><g transform="translate(-139 -3762)"><use fill="#981477" xlink:href="#e"/></g><g transform="translate(-139 -3762)"><use fill="#981477" xlink:href="#f"/></g><g transform="translate(-139 -3762)"><use fill="#e97700" xlink:href="#g"/></g></svg>