<svg xmlns="http://www.w3.org/2000/svg" xmlns:xlink="http://www.w3.org/1999/xlink" width="64" height="50" viewBox="0 0 64 50"><defs><path id="a" d="M214.17 3773.24v-.94c0-1.49 0-2.03 1.5-2.3 3.13-.41 6.4 0 9.4-.54.68-1.08 2.72-3.11 3.95-4.46l2.58 2.57-5.31 5.27c-2.45.4-6.12.13-8.71.4zm-2.45 13.79c1.64 1.75 3.14 3.65 4.91 5.4.95.95.81.68.81 2.16 0 2.03-.13 4.33 0 6.36l.14 3.24h-2.32c-.95 0-1.22.13-1.36-1.08-.27-2.43 0-4.33 0-6.89 0-1.9.27-1.49-.95-2.57-.68-.68-2.59-2.57-3.95-4.06zm19.75 19.73c1.22-1.62 4.36-3.52 5.31-5.27.54-.68.95-.54 1.77-.54 1.09.13 5.72 0 6.81 0h3.27c0 .67.13 1.35.13 1.75 0 1.22 0 1.35-1.22 1.35-1.37 0-6 .14-7.36 0-1.09 0-1.63-.13-2.18.68-1.09 1.76-2.58 2.97-3.94 4.59zm27.23-28.25h1.5c.14 0 .41-.13.41.14v1.21c0 .28 0 .41-.14.41-.27.14-1.22 0-2.04 0-.41 0-.27-.41-.27-1.08-.14-.68.27-.68.54-.68zm3.41.81c0-.67-.14-1.08.27-1.08.68-.13 1.63-.13 1.91-.13.13 0 .27 0 .27.13v1.35c0 .27-.27.27-.41.27h-1.36c-.41.14-.68.14-.68-.54zm-10.76 7.71a36.65 36.65 0 0 1-5.99-6.22l.13-2.97c0-.95 0-3.79-.13-4.46v-3.65c.41 0 .81 0 1.36-.14 1.09-.13 1.91 0 1.91 1.36 0 1.48.13 3.1.13 4.59l-.13 2.7h6.67c.41 0 .95-.27.95.95 0 .13 0 .67-.14.67h-6.94c1.36 1.76 2.86 3.25 4.49 4.87zm-33.91 2.02c0-1.08-.13-2.02-.13-2.97 0-.4.27-.4.27-.4.95 0 1.36.27 2.31.13.68-.13 3.95-.27 4.5-.27h.54c.55.14.55 1.08.55 1.35v1.35c0 .14-.14.27-.14.41-.14.4-4.9.27-7.76.4-.14 0-.14-.13-.14 0zm20.97-3.64c2.86.13 7.63 0 7.76.4 0 .14.14.27.14.41v1.35c0 .27 0 1.21-.54 1.35h-.55c-.54 0-3.81-.14-4.49-.27-.96-.14-1.36.13-2.32.13 0 0-.27 0-.27-.4 0-.95.14-1.89.14-2.97 0 .13.13 0 .13 0zm-4.9 15.94c0 .14 0 .14-.27.14h-2.86c-.41 0-.41 0-.41-.41v-2.3c.14-.4.14-.81.14-1.21v-3.52c.13-.4.27-.54.81-.54h1.77c.55 0 .82.14.82.54v.95c-.14 1.62-.14 3.11-.14 4.73 0 .68 0 1.22.14 1.62zm0-20.67c0 .13 0 .13-.27.13h-2.86c-.41 0-.41 0-.41-.4v-2.3c.14-.41.14-.81.14-1.22v-3.51c.13-.41.27-.54.81-.54h1.77c.55 0 .82.13.82.54v.94c-.14 1.63-.14 3.11-.14 4.73 0 .68 0 1.22.14 1.63z"/><path id="b" d="M217.44 3773.48c-.14 2.3 0 4.46-.14 6.62 0 .54-.14 1.22-.55 1.62-1.22 1.76-3.94 4.06-5.31 5.68l-2.58 2.57c-.55-.68-1.09-1.08-1.37-1.35-.68-.82-.68-1.49.14-2.3 1.77-1.89 4.09-3.65 5.72-5.68.41-.54.54-1.35.54-2.02v-4.87zm-.14 27.7h.95c2.04 0 4.77-.13 6.67-.27 2.46 1.76 3.54 3.52 6.4 6.08l2.59 2.71a2.5 2.5 0 0 0-.68.94c-1.09 1.35-1.22 1.22-2.59.14-2.99-2.43-4.9-4.33-7.21-6.62-1.64.13-3.82.13-5.99.27zm45.48-5.81c0 .68.14.95-.27.95-.82 0-1.77.13-2.05 0-.13 0-.13-.14-.13-.41v-1.08c0-.27.27-.13.41-.13h1.5c.27 0 .54 0 .54.67zm-4.49.81h-1.37c-.13 0-.4 0-.4-.27v-1.21c0-.27.13-.27.27-.27.27 0 1.22 0 1.9.13.41 0 .28.27.28.95 0 .67-.41.67-.68.67zm7.21-7.43h-1.36c-.13 0-.41 0-.41-.27v-1.35c0-.14.14-.14.28-.14.27 0 1.22 0 1.9.14.41 0 .27.4.27 1.08s-.27.68-.68.54zm-12.8 5.81c1.09 0-.27.14.82 0h.68c.55 0 .41.95.41 1.35 0 .14-.14.14-.27.14-3.54.13-2.18 0-5.72-.14h-.68c0 1.35.27 3.65.41 5.41h-3.27c.27-2.43-.27-4.06-.27-6.49 0-1.08-.28-1.21.54-2.03 1.63-1.48 3.95-3.64 5.72-5.4l2.18-2.16c.68.54 1.36 1.21 1.9 1.75 3.27 0 4.09.41 5.86.27.41 0 .95-.27.95.95 0 .14 0 .68-.13.68-4.77.13-1.09 0-5.86-.14h-1.22c-1.91 2.03-4.23 4.19-5.86 5.81.68-.13 1.63-.13 3.81 0zm17.3-6.62c0 .68.13 1.08-.28 1.08-.81 0-1.77.14-2.04 0-.13 0-.13-.13-.13-.4v-1.22c0-.27.27-.14.4-.14h1.5c.27-.13.55 0 .55.68zm-41.13-22.7c.28-.27.55-.68.68-.81 1.37-2.17 1.64-1.63 3.27 0a65.12 65.12 0 0 1 5.04 5.67c2.45 0 5.04 0 7.35-.13v3.51l-8.57-.13c-1.23-1.49-3.82-4.06-5.32-5.55zm-6.4 33.65c-.68-.68-1.49-1.36-2.18-2.03-.27-.27-.13-.41-.13-.41.68-.81 1.09-.81 1.77-1.62.41-.4 2.59-2.84 2.99-3.24l.41-.41c.41-.27 1.09.27 1.36.54l.96.95c.13.13.13.27.27.4.27.41-3.27 3.65-5.17 5.82h-.28zm12.39-17.17c2.18-1.89 5.45-5.4 5.86-5.13.14.13.27.13.41.27l.95.94c.27.27.82.95.55 1.36l-.41.4c-.41.41-2.86 2.57-3.27 2.97-.82.68-.82 1.09-1.63 1.76 0 0-.14.14-.41-.13-.68-.68-1.36-1.49-2.05-2.17v-.27zm7.77 14.73c.13.14.13.14 0 .27l-2.05 2.03c-.27.27-.27.27-.54 0l-1.63-1.62c-.28-.27-.55-.68-.82-.95a46.86 46.86 0 0 0-2.45-2.56c-.28-.41-.28-.55.13-.95.41-.27 1.09-.95 1.37-1.22.4-.4.68-.4.95-.13.27.27.54.4.68.67 1.09 1.22 2.04 2.3 3.27 3.38.54.41.81.81 1.09 1.08zm-14.71-14.59c.14.13.14.13 0 .27l-2.04 2.03c-.27.27-.27.27-.55 0l-1.63-1.63c-.27-.27-.55-.67-.82-.94-.68-.81-2.04-2.16-2.45-2.57-.27-.4-.27-.54.14-.95.41-.27 1.09-.94 1.36-1.21.41-.41.68-.41.95-.14.27.27.55.41.68.68 1.09 1.22 2.05 2.3 3.27 3.38.55.4.82.81 1.09 1.08z"/><path id="c" d="M230.12 3792.03v-1.76c0-.27.27-.67-.41-.67h-2.45c-.41 0-.27-.14 0-.41.81-.81 1.77-1.62 2.59-2.57 1.08-1.08 2.45-2.29 3.54-3.38.4-.4.4-.27.4.14v1.89c0 .41.41.27.55.14.54-.14 1.09-.14 1.63-.27.82-.14.41 0 .14.54-.95 1.21-1.91 2.16-3 3.38-.95.81-1.9 2.16-2.72 3.1-.14.27-.27 0-.27-.13"/><path id="d" d="M233.34 3792.03v-1.76c0-.27-.27-.67.41-.67h2.45c.41 0 .27-.14 0-.41-.82-.81-1.77-1.62-2.59-2.57-1.09-1.08-2.45-2.29-3.54-3.38-.41-.4-.41-.27-.41.14v1.89c0 .41-.41.27-.54.14-.55-.14-1.09-.14-1.64-.27-.81-.14-.41 0-.13.54.95 1.21 1.9 2.16 2.99 3.38.96.81 1.91 2.16 2.73 3.1.27.27.27 0 .27-.13"/></defs><g transform="translate(-207 -3762)"><use fill="#e97700" xlink:href="#a"/></g><g transform="translate(-207 -3762)"><use fill="#006db5" xlink:href="#b"/></g><g transform="translate(-207 -3762)"><use fill="#006db5" xlink:href="#c"/></g><g transform="translate(-207 -3762)"><use fill="#e97700" xlink:href="#d"/></g></svg>