<svg xmlns="http://www.w3.org/2000/svg" xmlns:xlink="http://www.w3.org/1999/xlink" width="58" height="50" viewBox="0 0 58 50"><defs><path id="a" d="M345.37 3799.12c.08-1.3.17-3.63-.26-3.63-2.45.02-3.41.07-5.86.07l.02-1.18c.02-2.01.32-4.89-.11-6.86-.53-2.37-1.19-4.14-3.71-4.85-3.15-.9-5.82-1.11-8.59.73a5.1 5.1 0 0 0-2.3 3.55 48.9 48.9 0 0 0-.41 11.21c.06.64.53.73 1.11.77 1.15.07 2.71.04 3.77.13 1.22.09 3.03.15 4.35.24.47-1.12.49-1.97.13-3.17-.08-.25-.53-.1-.85-.17-1.26.04-3.54 0-4.88-.23-.03-.28 0-1.76.02-2.08.04-1.79.02-4.08.38-5.87-.13-.81.58-2.46 2.2-2.46.96 0 3.96.09 4.37.41.87.66 1.17 2.24 1.13 3.93-.07 3.01-.51 6.24-.04 8.78.1.86.79.66 1.42.68 1.16.05 2.31.13 3.46.13 1.43 0 1.47-.1 3.07-.02.77-.02 1.58.02 1.58-.11"/><path id="b" d="M336.52 3807.51c-.02-2.87.26-7.29-.15-7.38a1.93 1.93 0 0 0-.47-.08l-1.34-.04c-.32-.03-1.26 0-1.35.44-.04.2-.08.39-.06.56.02.6-.15 3.8-.11 4.42 0 .71-.02.96-.04 1.95 0 .02-.04.23.36.25h2.95c.08 0 .15-.04.21-.12"/><path id="c" d="M330.54 3800.13c-.02 2.41.04 7.99-.17 9.74l-3.35-.02c-.02-.11-.02-.23-.02-.34.02-.6.02-6.69.06-7.31 0-.7-.02-.96-.04-1.94 0-.02-.04-.24.36-.26.98 0 1.97 0 2.95.02.08-.02.15.02.21.11"/><path id="d" d="M335.45 3765.56c.87-.66 1.49-1.28 2.28-1.81.53-.37.68-.43.73.32.12 1.92 0 3.31-.03 4.78-.78 0-1.51-.02-2.23 0-1.09.03-2.2.11-3.29.11-1.81 0-3.6-.06-5.41-.11-.41.09-.56-.02-.47-.17-.09-1.43.06-2.97.06-4.55 0-.77-.08-.98.7-.34.52.43 1.52.86 2.03 1.28.53.47.77.49 1.24.02.4-.4.72-.85 1.13-1.28.27-.3.3-.45.66-.81.94.98 1.64 1.62 2.6 2.56"/><path id="e" d="M328.34 3773.19c.36.47.85.67 1.55.32.79-.38.86-1.96.11-2.3-.4-.17-.77-.32-1.17-.09-.88.47-1.09 1.3-.49 2.07"/><path id="f" d="M336.53 3774.5c.9.36 2.07.11 2.16-1.15.06-1.01-.6-1.37-1.26-1.35-.66.02-1.43.39-1.43 1.3 0 .5.11.99.53 1.2"/><path id="g" d="M305.63 3792.99c.68.83 1.58 1.22 2.86.6 1.45-.71 1.58-3.61.21-4.21-.74-.32-1.43-.58-2.17-.17-1.62.87-2.01 2.39-.9 3.78"/><path id="h" d="M301.62 3803.48c-.04-1.62-.13-3.35.19-3.39l.47-.07c.45-.02.9-.02 1.35-.02.32 0 1.26 0 1.34.3.04.11.06.23.06.36-.02.39.13 2.4.09 2.78 0 .3.04.47.02.75-.02.36-.36.98-.85 1.45-.28.26-1.54 1.86-1.84 2.12l-.81.94c-.02.02-.08.15-.36-.13-.72-.66-1.45-1.33-2.17-1.97-.07-.06-.11-.13-.11-.21.85-.9 1.92-2.24 2.62-2.91"/><path id="i" d="M308.02 3800.11c0 2.37-.09 7.82.11 9.66h1.55l1.81.02c.03-.08.03-.17.03-.28-.03-.59.02-6.68-.03-7.3 0-.71.03-.97.05-1.95 0-.02.04-.23-.37-.25h-2.94c-.08-.03-.17.02-.21.1"/><path id="j" d="M314.36 3773.1c.38.45.92.64 1.66.32.86-.36.92-1.9.13-2.22-.43-.17-.83-.3-1.26-.09-.94.45-1.17 1.26-.53 1.99"/><path id="k" d="M322.51 3773.42c.88.34 2.01.1 2.09-1.12.07-.96-.57-1.32-1.21-1.3-.64.02-1.39.39-1.39 1.26 0 .47.09.94.51 1.16"/><path id="l" d="M298.54 3768.14c-1.09-.11-1.95-.32-2.9-.36-.64-.03-.82-.03-.45.64.89 1.71 1.77 2.82 2.56 4.06l1.89-1.16c.94-.55 1.92-1.04 2.86-1.6 1.54-.94 3.05-1.92 4.56-2.91.41-.12.47-.29.3-.4-.68-1.26-1.64-2.5-2.45-3.85-.4-.64-.45-.87-.79.07-.21.62-.83 1.51-1.02 2.13-.21.67-.41.82-1.05.67-.57-.13-1.06-.35-1.64-.52-.38-.1-.49-.21-.98-.34-.34 1.37-.6 2.27-.89 3.57"/><path id="m" d="M308.78 3771.62c-.09.62-.41 1.09-1.24 1.16-.94.08-1.9-1.31-1.41-2.03.28-.39.54-.71 1.03-.75 1.08-.02 1.74.6 1.62 1.62"/><path id="n" d="M302.74 3775.88c-.57.77-1.7 1.17-2.45.15-.57-.81-.21-1.48.36-1.8.58-.32 1.41-.4 1.9.37.28.4.45.87.19 1.28"/><path id="o" d="M348.19 3765.67c-.47-.07-1.09-.03-1.49-.05-.49-.02-.87-.02-1.11-.45-.34-.57-.68-1.21-1-1.85-.21-.45-.26-.41-.47.04-.34.73-.94 1.43-1.22 2.18-.81.02-1.62.04-2.51.08-.45.02-.51.07-.17.39.7.68 1.36 1.17 1.92 1.81-.66.73-.88 1.16-1.35 1.65-.32.36-.44.53.05.6.64.08 1.68.04 2.09.04.21 0 .68 1.09.98 1.84.27.66.36.68.76.11.52-.73.79-1.42 1.28-2.1.79-.02 1.65-.04 2.54-.08 0-.22-.08-.39-.17-.54-.13-.19-.32-.34-.47-.51a8.63 8.63 0 0 0-.49-.51c-.28-.3-.34-.47-.15-.79.09-.15.34-.39.53-.65.37-.49.99-1.15.45-1.21"/><path id="p" d="M345.61 3785.46c-.05 5.36-.13 19.23-.11 20.1.04 2.33.04 1.63.11 3.96 0 .08.06 2.09.02 2.2-.02.06-.04.06-.22.06h-1.4c-.32 0-.26-.34-.28-.43-.13-1.49-.13-3.07-.15-4.57l-.02-2.61.19-18.74a2.8 2.8 0 0 1-1.02-.85c-1.28-1.58-.83-3.33 1.02-4.34.88-.47 1.64-.17 2.5.19 1.57.69 1.42 4.02-.24 4.83-.15.09-.28.15-.4.2"/><path id="q" d="M338.05 3769l.04 1.62c-2.85 0-4.22 1.37-4.2 2.61-.12 2.54.03 2.61 0 5.09 0 .36-.02 1.3-.79 1.32-.74.11-1.42-.02-2.11.02-1.19.11-1.38-1.64-.17-1.69.56-.1.9.09 1.47-.04-.12-2.09-.04-3.65-.04-5.17 0-2.73 3.46-3.76 5.65-3.76h.15"/><path id="r" d="M328 3791.62c.36-.72 1.02-1.09 1.54-1.62.23-.26.51-.47.76-.71.37-.34.6-.4.98-.08.73.64 1.43 1.32 2.09 2.05.34.36.2.83-.19 1.18l-1.94 1.66c-.34.3-.38.54-.68.19-.83-.96-1.79-1.62-2.56-2.67"/><path id="s" d="M317.09 3789.14c.81-.27 1.58-.06 2.35-.08.36 0 .72.02 1.11.04.51.02.74.13.79.64.06 1.01.06 2.03.02 3.04-.02.51-.47.77-1.01.72-.89-.06-1.79-.1-2.68-.17-.47-.04-.68.11-.64-.34.08-1.32-.15-2.52.06-3.85"/><path id="t" d="M314.5 3807.5c.04.09.13.13.23.13.98.02 1.96.02 2.95.02.4-.02.36-.23.36-.25-.02-.99-.04-1.24-.04-1.95.04-.62-.11-3.82-.09-4.42 0-.17-.02-.36-.06-.56-.09-.44-1.03-.49-1.35-.47-.44.03-.89.03-1.34.05-.15 0-.32.04-.47.08-.4.09-.17 4.51-.19 7.37zm-21.69 2.55l-1.43.06c-.1 0-.38-.04-.38.28v1.3c0 .15.13.17.21.19.26.11 1.13 0 1.86-.08.36-.04.25-.47.25-1.09 0-.66-.29-.68-.51-.66zm4.42.94c-.02-.62.06-1.05-.32-1.07-.81-.02-1.79-.09-2.07.04-.09.04-.11.17-.11.34l.02 1.22c.02.32.3.19.41.19l1.55-.02c.2 0 .54-.02.52-.7zm23.43-10.84c0 2.4-.08 7.89.13 9.68l-11.07-.08c-3.32.02-6.69-.04-10.02.15-.11 0-.6-.05-.6.23v1.24c0 .15.13.17.22.19l1.06-.02c2.69.02 4.74-.04 7.42-.06 1.52-.02 29.45.11 30.96.15h.75c.41-.02.98.23.96-.92 0-.15 0-.73-.19-.71-.73-.02-8.57-.08-16.14-.12.02-.11.02-.22.02-.32-.02-.6.02-6.69-.02-7.31 0-.71.02-.96.04-1.95 0-.02.04-.23-.36-.25h-2.95a.19.19 0 0 0-.21.1z"/><path id="u" d="M316.06 3765.32c-.86-.66-1.47-1.28-2.26-1.82-.54-.36-.69-.42-.73.3-.15 1.93-.02 3.31 0 4.79.79 0 1.52 0 2.24.02 1.09.04 2.2.13 3.28.13 1.82 0 3.59-.07 5.4-.11h.49c.08-1.43-.04-3.12-.02-4.7.02-.77.08-.98-.71-.34-.53.4-1.25 1.24-1.77 1.67-.53.47-.49.4-.95-.07-.41-.4-.73-.85-1.11-1.3-.64-.71-.96-1.31-1.77-.51-.75.66-1.35 1.19-2.09 1.94"/><path id="v" d="M325.07 3768v1.6c-2.85 0-4.2 1.37-4.18 2.63-.12 2.54.03 2.61 0 5.09 0 .36-.02 1.3-.79 1.32-.74.11-1.42-.02-2.11.02-1.19.11-1.38-1.64-.17-1.69.56-.1.9.09 1.47-.04-.12-2.09-.04-3.65-.04-5.17 0-2.73 3.46-3.76 5.65-3.74l.17-.02"/><path id="w" d="M298 3772.23l.75 1.44c2.43-1.5 4.39-1.05 5.03.02 1.45 2.09 1.36 2.24 2.69 4.31.19.3.7 1.09 1.36.73.7-.28 1.22-.75 1.79-1.07 1.07-.53.32-2.11-.74-1.52-.52.2-.73.54-1.28.73-1.01-1.84-1.92-3.14-2.71-4.42-1.43-2.33-4.93-1.41-6.8-.28.02 0-.05.04-.09.06"/><path id="x" d="M314.16 3784.01a4.85 4.85 0 0 0-2.52-1.5c-3.15-.89-6.31-.4-9.06 1.44a4.7 4.7 0 0 0-2.17 3.44 44.85 44.85 0 0 0-.17 10.74c.06.65.53.73 1.1.77 2.8.17 5.38-.15 8.13-.02.53.02.72.04.66-.51-.09-.75-.06-1.28-.09-2.09-.02-.71-.36-.43-.98-.56a70.4 70.4 0 0 1-5.24 0c-.17-2.22-.28-5.13.1-7.27.39-2.05 2.16-3.07 4.14-3.18 2.22-.11 4.05.36 4.42 2.93a49.8 49.8 0 0 0-.24 9.98c.06.64.53.72 1.09.77 2.73.17 5.26-.15 7.97-.03.54.03.73.05.66-.51-.08-.75-.06-1.02-.08-1.84-.02-.7-.34-.42-.96-.55-1.24.04-3.78.08-5.14 0-.02-.28-.11-2.05-.11-2.37.05-1.48.02-3.1.22-4.62.17-1.45.4-3.48 2.43-3.48.94 0 3.88.08 4.28.4.75.58 1.6.97 1.71 2.95.06-.64.15-1.28.26-1.9a4.99 4.99 0 0 1 1.4-2.82 4.5 4.5 0 0 0-2.53-1.6c-3.12-.9-5.95-.88-8.66.96-.19.13-.43.3-.62.47"/></defs><g transform="translate(-291 -3762)"><use fill="#006db5" xlink:href="#a"/></g><g transform="translate(-291 -3762)"><use fill="#006db5" xlink:href="#b"/></g><g transform="translate(-291 -3762)"><use fill="#006db5" xlink:href="#c"/></g><g transform="translate(-291 -3762)"><use fill="#006db5" xlink:href="#d"/></g><g transform="translate(-291 -3762)"><use fill="#006db5" xlink:href="#e"/></g><g transform="translate(-291 -3762)"><use fill="#006db5" xlink:href="#f"/></g><g transform="translate(-291 -3762)"><use fill="#006db5" xlink:href="#g"/></g><g transform="translate(-291 -3762)"><use fill="#006db5" xlink:href="#h"/></g><g transform="translate(-291 -3762)"><use fill="#006db5" xlink:href="#i"/></g><g transform="translate(-291 -3762)"><use fill="#006db5" xlink:href="#j"/></g><g transform="translate(-291 -3762)"><use fill="#006db5" xlink:href="#k"/></g><g transform="translate(-291 -3762)"><use fill="#006db5" xlink:href="#l"/></g><g transform="translate(-291 -3762)"><use fill="#006db5" xlink:href="#m"/></g><g transform="translate(-291 -3762)"><use fill="#006db5" xlink:href="#n"/></g><g transform="translate(-291 -3762)"><use fill="#e97700" xlink:href="#o"/></g><g transform="translate(-291 -3762)"><use fill="#e97700" xlink:href="#p"/></g><g transform="translate(-291 -3762)"><use fill="#e97700" xlink:href="#q"/></g><g transform="translate(-291 -3762)"><use fill="#e97700" xlink:href="#r"/></g><g transform="translate(-291 -3762)"><use fill="#e97700" xlink:href="#s"/></g><g transform="translate(-291 -3762)"><use fill="#e97700" xlink:href="#t"/></g><g transform="translate(-291 -3762)"><use fill="#e97700" xlink:href="#u"/></g><g transform="translate(-291 -3762)"><use fill="#e97700" xlink:href="#v"/></g><g transform="translate(-291 -3762)"><use fill="#e97700" xlink:href="#w"/></g><g transform="translate(-291 -3762)"><use fill="#e97700" xlink:href="#x"/></g></svg>