<svg xmlns="http://www.w3.org/2000/svg" xmlns:xlink="http://www.w3.org/1999/xlink" width="58" height="50" viewBox="0 0 58 50"><defs><path id="a" d="M375 3762.27c1.34 1.45 2.74 2.85 4.01 4.33 2.17 2.49 4.26 5.03 6.39 7.55.89 1.05 1.8 2.11 2.72 3.15.13.15.43.29.65.3.82.04 1.64.02 2.8.02-1.61-2.12-2.97-4.02-4.46-5.86-2.15-2.66-4.37-5.29-6.58-7.93-.33-.4-.68-.8-1.08-1.16-.2-.19-.5-.41-.78-.43-1.17-.12-2.34-.16-3.51-.24-.05.09-.1.19-.16.27"/><path id="b" d="M386 3762.13c.79 1.07 1.42 2.01 2.14 2.9 2.85 3.52 5.72 7.02 8.58 10.52l.27.33c1.49 1.88 1.49 1.88 4.55 1.63-.31-.45-.54-.87-.85-1.25l-8.74-10.59c-.75-.89-1.52-1.79-2.12-2.76-.47-.76-1.05-1.01-1.98-.88-.53.06-1.08.06-1.85.1"/><path id="c" d="M425.56 3777.46c-2.21.03-3.76.07-5.99.09-2.33.01-4.66-.04-7-.01-10.91.13-21.77-.4-32.69-.31-3.22-.03-7.53-.43-10.58-.1.15.69-.74 4.82 0 4.76 3.85.06 9.25 0 13.11.04 1.7.02 3.4.11 5.1.1 4.41-.02 8.8-.09 13.2-.13 2.6-.02 5.21.06 7.82-.03 4.39-.14 8.48-.17 12.87-.13.79.01 1.05.24 1.02.74-.08 1.28.01 2.55 0 3.82-.01 1.85-.16 5.96 0 7.8-5.94.13-10.2.48-16.12.36-9.56-.19-19.03-.35-28.58-.11-2.7.07-5.21-.17-7.91-.05-.51.02-.68-.12-.72.41a6.87 6.87 0 0 0-.02 1.56c.08.3-.04.35.8.35 7.31.02 14.6.22 21.91.16 4.01-.04 7.99-.14 12.01-.25 2.98-.07 5.96.01 8.94-.02 4.98-.06 9.81.01 14.26.06-.21-3.66-.05-7.52-.22-11.3-.09-2.12-.06-4.55.22-6.68.11-.88-.67-1.14-1.43-1.13"/><path id="d" d="M381.06 3810.33c-1.83.02-4.16-2.23-4.06-4.13.17-3.15 1.89-4.26 5.12-4.2.51.01 1.1.34 1.52.68 1.45 1.22 2.25 3.08 1.1 5.62-.63 1.39-2.18 2.06-3.68 2.03"/><path id="e" d="M411.47 3809.33c2.25 0 3.17-1.01 3.74-3.42.38-1.56-.75-3.88-2.25-4.62-1.19-.59-3.6-.22-4.53.64a4.48 4.48 0 0 0-.47 6.06c.8.99 2.15 1.34 3.51 1.34"/><path id="f" d="M375.21 3805.08c-.07-1.72.18-2.95-.82-2.98-2.01-.08-4.4-.22-5.13.11-.2.09-.28.5-.26.98l.07 3.42c.03.87.71.54.98.54l3.83-.09c.58-.01 1.4-.12 1.33-1.98"/><path id="g" d="M404.1 3802.11c.12 0 1.39-.11 1.44.01.06 1.1.22 3.11-.05 4.3-.14.65-.42.66-.99.69-2.91.16-5.87.09-8.7.02-1.86.07-8.13-.04-8.14-.07-.67.21-.85-2.86-.46-4.31.16-.64.42-.65 1-.69 1.37-.09 2.81-.08 4.18.03 3.86.3 7.84.03 11.72.02"/><path id="h" d="M419.63 3805.29c-.74 0-1.44.38-1.5-.45-.06-.96-.15-2.32-.12-3.28.15-.56.29-.48.87-.51 1.16-.05 2.71-.16 3.88-.11-.02-1.39.03-3.1.09-4.49l-.02-.45 4.41.05c.09 1.16-.07 3.03 0 4.1.1 1.37.11 2.8.03 4.17-.03.56-.04.83-.62.99-.48-.01-.93.06-1.83.04-1.59-.02-3.93-.06-5.19-.06"/><path id="i" d="M387 3810.64c-.04.99.39 1.05.69 1.06l2.01.04c.15 0 .51.17.52-.29l.04-1.82c.01-.25-.03-.46-.14-.52-.37-.17-1.63-.1-2.69-.06-.52.02-.39.67-.43 1.59zm5.05-.39c-.01.91-.15 1.55.32 1.62.95.12 2.07.29 2.41.14.1-.04.29-.04.29-.3l.01-1.95c0-.47-.37-.4-.49-.41l-1.86-.1c-.28-.02-.67.01-.68 1zm5.68-.89c-.25-.02-.26.83-.26 1.06-.02 1.71.75 1.33 1.3 1.35.36.02.71.02 1.02.01 2.05-.05 4.16.07 6.22.1 4.42.07 12.65.08 17.08.19.17 0 3.97.1 4.18.03.12-.04.12-.04.12-.27v-1.86c0-.44-.65-.35-.81-.36l-4.28.03-8.07-.15c-5.5-.14-11.02-.25-16.5-.13z"/></defs><g transform="translate(-369 -3762)"><use fill="#008f37" xlink:href="#a"/></g><g transform="translate(-369 -3762)"><use fill="#008f37" xlink:href="#b"/></g><g transform="translate(-369 -3762)"><use fill="#008f37" xlink:href="#c"/></g><g transform="translate(-369 -3762)"><use fill="#008f37" xlink:href="#d"/></g><g transform="translate(-369 -3762)"><use fill="#008f37" xlink:href="#e"/></g><g transform="translate(-369 -3762)"><use fill="#e97700" xlink:href="#f"/></g><g transform="translate(-369 -3762)"><use fill="#e97700" xlink:href="#g"/></g><g transform="translate(-369 -3762)"><use fill="#e97700" xlink:href="#h"/></g><g transform="translate(-369 -3762)"><use fill="#e97700" xlink:href="#i"/></g></svg>