<svg xmlns="http://www.w3.org/2000/svg" xmlns:xlink="http://www.w3.org/1999/xlink" width="16" height="12" viewBox="0 0 16 12"><defs><path id="q3xja" d="M58.99 1713.88v2.44a.3.3 0 0 1-.3.3h-.34v1.53a.3.3 0 0 1-.3.3h-.56v.6a.3.3 0 1 1-.62 0v-.6H45.12v.6a.3.3 0 0 1-.62 0v-.6h-.55a.3.3 0 0 1-.31-.3v-1.52h-.33a.3.3 0 0 1-.31-.3v-2.45c0-.48.36-.89.83-.96v-3.94c0-.54.43-.98.97-.98H57.2c.54 0 .97.44.97.98v3.94c.47.07.83.48.83.96zm-3.38-.97c.29-.3.57-.6.87-.94a24.08 24.08 0 0 0-2.22-2.22c-.83.73-1.49 1.39-2.22 2.22.3.34.58.65.86.94zm-6.53 0c.29-.3.58-.6.87-.94a24.09 24.09 0 0 0-2.22-2.22c-.83.73-1.49 1.39-2.22 2.22.3.34.58.65.87.94z"/></defs><g><g transform="translate(-43 -1708)"><use fill="#fff" xlink:href="#q3xja"/></g></g></svg>