<svg xmlns="http://www.w3.org/2000/svg" xmlns:xlink="http://www.w3.org/1999/xlink" width="60" height="60" viewBox="0 0 60 60"><defs><path id="duofa" d="M217.95 2391.86v-3.26c0-.12-.07-2.7-.02-2.86.03-.08.03-.08.2-.08h1.33c.31 0 .25.47.26.58.02.26-.04 2.7-.03 2.95l-.02 2.67z"/><path id="duofb" d="M230.2 2387.18c.41 0 .54-.18.65-.3a6.98 6.98 0 0 0 .43-6.04c-.1-.26-.37.08-.53-.18-.16-.28-.27-1.06-.48-1.33-.05 0-.03-.08-.07-.08a25.1 25.1 0 0 1-3.5-.02c.73.77 1.42 2.46 1.6 4.17.1.75-.64.7-1.23.68-6.04-.18-19.42-.3-24.96-.32-.5 0-1.01-.1-1.06.37-.08.78-.08 1.87.08 2.58.1.44.17.42.55.44.93.06 3.51.05 4.43-.02 3.8-.29 7.83.05 11.65.05 2.19.05 10.31 0 12.44 0"/><path id="duofc" d="M183.03 2366.98c-.45.03-.76-.11-.87.33a7.08 7.08 0 0 0-.08 2.23c.04.54-.02.53.58.51l.6-.02c3.07 0 11.14-.32 14.2-.12 2.63.17 5.45.12 8.11.12 2.59 0 9.2-.07 12.55-.15.14.2 5.68 6.43 7.72 9.07-.51 0-.66.02-1.32.04-2.24-.05-15.76-.1-18.05.01-1.31.07-2.56 1.99-1.16 1.95.26 0 .55-.03.6-.03 3.06 0 17.13-.31 20.19-.11.3.02 3.95.08 5.18.04a40.3 40.3 0 0 0-1.85-2.87c-3.4-3.69-6.72-7.06-8.97-9.84-1.26-1.56-1.75-1.2-3.74-1.2-3.53 0-7.47-.13-10.97.02-.25-.05-.6-.02-.93-.02-12.07.02-11.66.16-21.8.04"/><path id="duofd" d="M219 2389.35c1.53 0 2.16.76 2.55 2.56.18.81-.26 1.89-.87 2.51-.64.65-2.3.92-3.1.48a3.21 3.21 0 0 1-.98-4.54c.55-.74 1.46-1.01 2.4-1.01"/><path id="duofe" d="M215.7 2395.03l3.54.03c1.73.02 3.69-.14 5.41-.03.12 0 .59-.05.59.23v1.23c0 .16 0 .16-.09.19-.16.05-2.88-.02-3-.02-3.19-.06-1.39.12-4.57.07-1.48-.02-4.07-.09-5.55-.05l-.72-.01c-.4-.02-.95.23-.94-.9 0-.15 0-.71.18-.7 1.36-.03 3.8-.04 5.15-.04zm-8.9-.03l1.4.06c.1.01.37-.03.37.28v1.3c0 .16-.15.16-.22.19-.26.1-1.1-.02-1.8-.1-.36-.04-.25-.46-.25-1.07 0-.65.3-.67.5-.66zm-3.97-.13c.8-.02 1.74-.07 2.03.04.08.04.1.18.1.35l-.03 1.2c-.01.31-.28.2-.38.2l-1.52-.03c-.22 0-.55-.05-.52-.7.03-.61-.07-1.04.32-1.06z"/><path id="duoff" d="M211.55 2373.15h-.24c-.24.01-.22.02-.23-.2-.02-.31-.08-1 0-1.27.04-.18.16-.12.34-.13.92-.05 3.01-.03 3.91 0 .76-.03 1.13-.02 1.89-.02.8 0 1-.06 1.5.57 1.15 1.42 2.01 2.33 2.99 3.71.19.27.61.75.91 1.18.24.34.01.28-.39.28l-1.73-.02c-1.23-.08-8.51.04-9.74.04l-.25.01c-.23.01-.21.02-.23-.2-.02-.31-.08-.75 0-1.02.04-.18.16-.12.34-.13a365.58 365.58 0 0 1 9.2-.02c-.8-1.02-1.18-1.31-1.9-2.1l-.6-.74c-1.34.03-4.73.06-5.77.06"/><path id="duofg" d="M184.93 2392.48a68.7 68.7 0 0 0 4.67-.29c.53-.06 11.54-9.6 15.14-12.94.12-.11.23-.2.03-.24-.2-.03-.57.02-.87.02-.47.01-.82-.04-1.12.11-4.76 4.26-4.95 4.39-12.62 10.95l-2.05.05c-.58.62-2.38 1.42-2.94 2.19-.02.04-.2.1-.24.15"/><path id="duofh" d="M187.7 2379.41c.28-.37.51-.33-.01-.36-.75-.04-1.6-.13-2.34-.02-.5.07-.83.26-1.06.55-2.07 2.05-1.85 1.62-5.56 5.29-.9 1.24-.87 1.55.12 2.35 1.66 1.35 4 4.02 6.04 5.25.68.4 13.98-11.64 15.54-13.08.29-.37.27-.33-.25-.36-.75-.04-1.8.05-2.56.16-4.02 3.56-6.76 6.01-11.94 10.16-1.54-1.16-2.25-2.02-4.32-3.96 2.33-2.38 3.37-2.96 6.34-5.98"/><path id="duofi" d="M198.26 2373.4H198c-.23.01-.21.02-.23-.2-.02-.31-.08-1 0-1.27.04-.18.16-.12.34-.13.93-.05.05-.03.95 0 .76-.03 1.12-.02 1.88-.02.8 0 1-.06 1.5.57.04 3.6.1 1.16.11 4.7 0 .42.01.28-.39.29-.68 0-.68-.02-.78-.03-1.23-.08-1.9.05-3.13.05l-.25.01c-.23 0-.21.01-.23-.2-.02-.32-.08-.79 0-1.06.04-.17.16-.12.34-.13.93-.04 1.05-.02 1.95 0l.78-.02c.03-2.2-.11-1-.1-2.62-1.34.03-1.46.06-2.5.06"/><path id="duofj" d="M182.64 2373.4h-.25c-.23.01-.21.02-.23-.2-.02-.31-.08-1 0-1.27.04-.18.16-.12.34-.13.93-.05.05-.03.95 0 .76-.03 1.12-.02 1.88-.02.8 0 1-.06 1.5.57.04 3.6.1 1.16.11 4.7 0 .42.01.28-.39.29-.68 0-.68-.02-.78-.03-1.23-.08-1.9.05-3.13.05l-.25.01c-.23 0-.21.01-.23-.2-.02-.32-.08-.79 0-1.06.04-.17.16-.12.34-.13.93-.04 1.05-.02 1.95 0l.78-.02c.03-2.2-.11-1-.1-2.62-1.34.03-1.46.06-2.5.06"/><path id="duofk" d="M190.4 2373.4h-.24c-.23.01-.21.02-.23-.2-.02-.31-.08-1 0-1.27.04-.18.16-.12.34-.13.93-.05.05-.03.95 0 .76-.03 1.12-.02 1.88-.02.8 0 1-.06 1.5.57.04 3.6.1 1.16.11 4.7 0 .42.01.28-.39.29-.68 0-.68-.02-.78-.03-1.23-.08-1.9.05-3.13.05l-.25.01c-.23 0-.21.01-.23-.2-.02-.32-.08-.79 0-1.06.04-.17.16-.12.34-.13.93-.04 1.05-.02 1.95 0l.78-.02c.03-2.2-.11-1-.1-2.62-1.34.03-1.46.06-2.5.06"/></defs><g><g transform="translate(-175 -2352)"/><g transform="translate(-175 -2352)"><use fill="#a4199e" xlink:href="#duofa"/></g><g transform="translate(-175 -2352)"><use fill="#ec7900" xlink:href="#duofb"/></g><g transform="translate(-175 -2352)"><use fill="#a4199e" xlink:href="#duofc"/></g><g transform="translate(-175 -2352)"><use fill="#a4199e" xlink:href="#duofd"/></g><g transform="translate(-175 -2352)"><use fill="#ec7900" xlink:href="#duofe"/></g><g transform="translate(-175 -2352)"><use fill="#a4199e" xlink:href="#duoff"/></g><g transform="translate(-175 -2352)"><use fill="#ec7900" xlink:href="#duofg"/></g><g transform="translate(-175 -2352)"><use fill="#a4199e" xlink:href="#duofh"/></g><g transform="translate(-175 -2352)"><use fill="#a4199e" xlink:href="#duofi"/></g><g transform="translate(-175 -2352)"><use fill="#a4199e" xlink:href="#duofj"/></g><g transform="translate(-175 -2352)"><use fill="#a4199e" xlink:href="#duofk"/></g></g></svg>