<svg xmlns="http://www.w3.org/2000/svg" xmlns:xlink="http://www.w3.org/1999/xlink" width="145" height="145" viewBox="0 0 145 145"><defs><path id="ercha" d="M1179.15 2215.48c-.59 7.2-3.75 13.39-13.77 14.73-4.6.6-10.08-1.12-13.75-4.54-5.37-5-6.64-13.4-3.55-18.57 2.98-4.97 5.89-8.61 11.97-9.17 12.93-1.17 20.07 5.7 19.1 17.55zm-18.44-13.7c-4.63.43-6.84 3.2-9.1 6.98-2.36 3.94-1.4 10.34 2.7 14.14 2.79 2.6 6.96 3.92 10.46 3.45 7.63-1.01 10.04-5.72 10.49-11.2.73-9.03-4.7-14.26-14.55-13.37zm-59.41 28.42c-6.1-.56-9.03-4.21-12-9.2-3.11-5.2-1.84-13.62 3.55-18.63 3.68-3.43 9.18-5.17 13.8-4.56 10.06 1.34 13.23 7.55 13.82 14.78.97 11.9-6.2 18.79-19.17 17.6zm4.74-28.52c-3.52-.47-7.7.85-10.5 3.46-4.1 3.82-5.08 10.24-2.72 14.19 2.28 3.8 4.5 6.58 9.15 7 9.88.9 15.33-4.35 14.6-13.4-.46-5.5-2.87-10.23-10.53-11.25z"/><path id="erchb" d="M1131.25 2227.73c.33-.03.34 1.22.34 1.56.03 2.52-1.01 1.96-1.76 2-.47.03-.94.02-1.36.01-2.76-.07-5.6.08-8.38.13-5.96.1-19.15-.45-25.11-.3-.23 0-14.07.14-14.37.03-.16-.05-.16-.06-.16-.4v-2.74c0-.64.88-.52 1.1-.53.48-.03 14.05.07 14.53.06 9.35-.3 25.89-.05 35.17.18zm8.82 1.32c0 1.34.25 2.29-.53 2.38-1.58.18-3.45.43-4.02.21-.17-.06-.48-.06-.48-.44l-.01-2.88c0-.69.61-.59.83-.6l3.1-.15c.44-.02 1.1.02 1.1 1.48zm8.43.58c.07 1.46-.66 1.55-1.16 1.56l-3.36.07c-.24 0-.83.26-.87-.43l-.05-2.68c-.02-.38.05-.7.23-.77.63-.26 2.73-.14 4.5-.08.87.02.65.99.71 2.33z"/><path id="erchc" d="M1113.21 2131.38c-3.06.08-2.06 4.17-.2 3.86 3.3-.16 6.06 2.03 6.18 5.1.6 6.22.85 7.27 1.17 13.34.05.87.2 3.2 2.05 3.2 1.82.2 3.48-.2 5.12-.2 2.91.15 3.2-4.18.24-4.16-1.34-.18-2.18.3-3.59.07.08-5.16-.76-9.88-1.08-13.6-.38-4.4-5.36-7.98-9.89-7.61"/><path id="erchd" d="M1131.74 2138.46c-1.05-.38-1.85.08-2.74.65-1.64 1.04-.9 4.75 1.1 5.37 1.77.55 2.84-.13 3.53-1.34 1.15-2 .34-3.88-1.89-4.68zm-17.23 6.95c.94-.71.98-1.83.87-2.96-.2-2.07-2.2-2.59-3.7-2.32-1.51.27-2.69 1.13-2.34 3.36.45 2.81 3.16 3.19 5.17 1.92z"/><path id="erche" d="M1139.55 2184.46c-4.15-3.86-6.98-6.73-11.27-10.39-2.35-1.68-2.03-2.3-4.73-.1-4.58 4.02-8.4 8.78-12.78 13-.97.84-1.3 1.1-2.56 1.1l-7.7-.07c-1.73-.06-1.4-.96.36-2.43 1.58-1.32 2.97-2.92 4.96-4.75a308.47 308.47 0 0 0 14.7-14.44c4-4.52 6.55-3.9 10.64.3 6.6 5.64 12.9 11.82 18.78 17.72.43.43.31 2-.65 3.01-3.98 4.2-7.39 8.11-12.73 12.93a18.7 18.7 0 0 0 2.71 3.31c1.19 1.23 4.41 3.92 5.34 5.36.16 1.53-4.8 6.96-6.37 5.17-2.18-1.52-9.57-8.81-11.34-10.85-1.2-.64-1.12-2.3.03-3.92 3.85-6 8.14-9.38 12.6-14.95zm-14.68 37.78c-.89 0-.74.19-.8-.7-.3-4.78-.24-12.38-.57-14.1.27-1.8 1.1-1.41 1.88-.88 1.21.81 3.42 3.2 5.22 4.59.72.56.8 1.03.68 1.88-.05 2.42.37 6.13.3 8.55-.05 1.56-5.1.66-6.71.66z"/><path id="erchf" d="M1150.34 2199.1c-.32-.3-3.32-3.44-3.65-3.73-.14-.12-.62-.76-1.03-.35l-2.08 2.14c-.31.31-.17.37.06.68 2.46 3.3 8.62 8.86 11.13 11.37 2.3 2.3 4.58 4.71 7 6.88.5.45.8 1.46 2.38-.16.21-.21 1.35-1.42 1.13-1.61-5.74-6.03-8.82-9.5-14.94-15.22zm-43.8 16.24c.24-7.33.5-10.45.26-17.85l.06-2.77c4.12 0 5.14.4 10.34.32 2.77-.04 5.4-.18 8.16-.1.68.01 1.16.14 1.63-.39.38-.4 1.33-1.17 2.06-2.19.6-.85.57-1.12-.7-1.02-9.28-.23-13.09-.49-22.43-.18-.49.02-5.33-.1-5.81-.06-.22.02-1.1-.1-1.1.53v2.74c0 .34 0 .35.16.4.19.07 2.27.04 3.85.01l.03 1.78c.1 4.72-.38 5.18-.32 9.9.03 2.2.16 4.45.08 6.63-.02.33-.02.7 0 1.08.03.59-.47 1.4 1.79 1.43.3 0 1.96 0 1.94-.26z"/></defs><g><g transform="translate(-1056 -2117)"/><g transform="translate(-1056 -2117)"><use fill="#ec7900" xlink:href="#ercha"/></g><g transform="translate(-1056 -2117)"><use fill="#ec7900" xlink:href="#erchb"/></g><g transform="translate(-1056 -2117)"><use fill="#ec7900" xlink:href="#erchc"/></g><g transform="translate(-1056 -2117)"><use fill="#2177b8" xlink:href="#erchd"/></g><g transform="translate(-1056 -2117)"><use fill="#2177b8" xlink:href="#erche"/></g><g transform="translate(-1056 -2117)"><use fill="#2177b8" xlink:href="#erchf"/></g></g></svg>