<svg xmlns="http://www.w3.org/2000/svg" xmlns:xlink="http://www.w3.org/1999/xlink" width="145" height="145" viewBox="0 0 145 145"><defs><path id="f3yca" d="M679.14 2218.77c-3.67.04-8.33-4.5-8.13-8.31.33-6.35 3.79-8.57 10.25-8.46 1.03.02 2.21.66 3.03 1.36 2.92 2.46 4.51 6.2 2.21 11.32-1.26 2.79-4.36 4.15-7.36 4.1"/><path id="f3ycb" d="M745.18 2218.66c4.62.01 6.52-2.14 7.7-7.25.77-3.31-1.54-8.22-4.62-9.8-2.43-1.25-7.4-.48-9.32 1.36a9.74 9.74 0 0 0-.97 12.84c1.65 2.1 4.4 2.85 7.2 2.85"/><path id="f3ycc" d="M667.17 2207.84c-.15-3.26.37-5.6-1.73-5.66-4.28-.14-9.36-.41-10.88.22-.44.18-.6.94-.55 1.85l.13 6.48c.09 1.66 1.51 1.03 2.1 1.03l8.13-.15c1.2-.02 2.96-.25 2.8-3.77"/><path id="f3ycd" d="M728.25 2202.18c.27 0 3.03-.2 3.13.02.13 2.09.5 5.88-.11 8.16-.32 1.21-.92 1.24-2.16 1.3-6.33.33-12.8.19-18.95.06-4.04.13-17.68-.08-17.71-.15-1.46.4-1.86-5.42-1-8.15.32-1.22.9-1.25 2.15-1.32 3-.15 6.12-.13 9.11.06 8.42.55 17.08.03 25.54.02"/><path id="f3yce" d="M757.26 2210.27c-.14-2.12-.3-5.15-.25-7.24.32-1.22.62-1.06 1.86-1.13 2.47-.12 5.8-.34 8.3-.24-.07-3.06-.3-13.1-.2-16.15l-.04-.98c3.2.03 6.54-2.56 9.58-2.53.2 2.53.03 15.58.19 17.94.19 3 .2 6.12.06 9.11-.07 1.25-.1 1.84-1.32 2.16-1.02-.03-2 .13-3.9.1-2.24-.02-14.16.94-14.28-1.04"/><path id="f3ycf" d="M765.8 2218.73c.35.02 1.73-.13 1.73.67v3.48c0 .44 0 .45-.25.52-9.98.8-20.82-.44-33.14-.18-.66.01-1.4.01-2.14-.02-1.18-.06-2.82.65-2.78-2.55 0-.43.03-2.02.55-1.98 18.06-.34 17.89.15 36.04.06zm-46.66-.27l3.94.18c.27.03 1.06-.1 1.06.78l-.02 3.66c0 .47-.4.48-.6.56-.74.28-3.12-.05-5.13-.28-.98-.11-.68-1.32-.66-3.03.02-1.85.85-1.9 1.41-1.87zm-11.22-.37c2.25-.07 4.92-.21 5.72.12.23.1.31.5.29.97l-.08 3.41c-.04.88-.8.54-1.1.54l-4.27-.08c-.63-.01-1.56-.13-1.47-1.99.07-1.7-.2-2.93.9-2.97z"/><path id="f3ycg" d="M774.82 2179.05c.09 0 .61-.04 1.1-.05 1.7-.05 1 5.19.84 5.73-.21.8-.52.55-1.35.6-4.18.2-7.46.11-11.53.02-3.44.12-19.06.05-22.5.06-1.06 0-2.17.17-2.27-.69a14.3 14.3 0 0 1 .18-4.68c.21-.8.36-.78 1.18-.82 1.98-.1 4.04-.09 6.02.04 5.56.36 22.74-.2 28.33-.21"/><path id="f3ych" d="M690.83 2162.72c8.34.1 15.27-.08 23.47-.28 6.56 8.74 7.11 9.04 13.9 17.83-1.27 0-2.63.03-4.3.09-14.44-.32-24.38-.15-38.86-.1l-19.13-.03c5.35-10.09 3.8-7.74 8.26-17.4l.46-.02c2.85 0 9.23-.04 16.2-.09zm-14.2-8.66c-4.98 0-6.21-.36-9.38 3.55-7.34 13.23-3.98 8.7-10.17 19.33-1.44 2.05-3.5 5.8-3 9.13 2.95.3 9.8.08 10.57.04.52-.04 1.3-.07 2.32-.09 6-.03 10.03-.05 17.53-.06 15.63.06 30-.83 44.94.15.76.04 7.62.25 10.57-.04.5-3.32-.78-4.98-2.22-7.04-6.62-9.41-9.01-12.29-16.4-21.42-3.16-3.91-4.4-3.55-9.38-3.55l-12.7-.02c-3.67-.08-7.27-.03-10.9.05-3.88-.08-7.73-.14-11.69-.03z"/><path id="f3yci" d="M698 2191.06c.08-1.7-.19-2.93.92-2.97 2.25-.07 4.92-.21 5.72.12.23.1.31.5.29.97l-.08 3.41c-.04.88-.8.54-1.1.54l-4.27-.08c-.63-.01-1.56-.13-1.47-1.99"/><path id="f3ycj" d="M710.4 2189.88c.02 1.7.33 2.91-.66 3.02-2 .23-4.38.56-5.12.29-.2-.08-.6-.1-.6-.57l-.02-3.66c0-.87.78-.75 1.05-.77l3.94-.19c.56-.02 1.4.03 1.42 1.88"/><path id="f3yck" d="M711 2191.06c.08-1.7-.19-2.93.92-2.97 2.25-.07 4.92-.21 5.72.12.23.1.31.5.29.97l-.08 3.41c-.04.88-.8.54-1.1.54l-4.27-.08c-.63-.01-1.56-.13-1.47-1.99"/><path id="f3ycl" d="M724.4 2189.88c.02 1.7.33 2.91-.66 3.02-2 .23-4.38.56-5.12.29-.2-.08-.6-.1-.6-.57l-.02-3.66c0-.87.78-.75 1.05-.77l3.94-.19c.56-.02 1.4.03 1.42 1.88"/><path id="f3ycm" d="M723.93 2196.06c-.08-1.7.19-2.93-.92-2.97-2.25-.07-4.91-.21-5.72.12-.23.1-.31.5-.29.97l.08 3.41c.05.88.8.54 1.1.54l4.27-.08c.63-.01 1.56-.13 1.48-1.99"/><path id="f3ycn" d="M711.06 2194.88c-.02 1.7-.32 2.91.66 3.02 2.01.23 4.39.56 5.12.29.2-.08.6-.1.6-.57l.02-3.66c0-.87-.78-.75-1.05-.77l-3.94-.19c-.56-.02-1.4.03-1.41 1.88"/><path id="f3yco" d="M710.93 2196.06c-.08-1.7.19-2.93-.92-2.97-2.25-.07-4.91-.21-5.72.12-.23.1-.31.5-.29.97l.08 3.41c.05.88.8.54 1.1.54l4.27-.08c.63-.01 1.56-.13 1.48-1.99"/><path id="f3ycp" d="M698.06 2194.88c-.02 1.7-.32 2.91.66 3.02 2.01.23 4.39.56 5.12.29.2-.08.6-.1.6-.57l.02-3.66c0-.87-.78-.75-1.05-.77l-3.94-.19c-.56-.02-1.4.03-1.41 1.88"/></defs><g><g transform="translate(-644 -2117)"/><g transform="translate(-644 -2117)"><use fill="#db2e10" xlink:href="#f3yca"/></g><g transform="translate(-644 -2117)"><use fill="#db2e10" xlink:href="#f3ycb"/></g><g transform="translate(-644 -2117)"><use fill="#ec7900" xlink:href="#f3ycc"/></g><g transform="translate(-644 -2117)"><use fill="#ec7900" xlink:href="#f3ycd"/></g><g transform="translate(-644 -2117)"><use fill="#ec7900" xlink:href="#f3yce"/></g><g transform="translate(-644 -2117)"><use fill="#ec7900" xlink:href="#f3ycf"/></g><g transform="translate(-644 -2117)"><use fill="#ec7900" xlink:href="#f3ycg"/></g><g transform="translate(-644 -2117)"><use fill="#db2e10" xlink:href="#f3ych"/></g><g transform="translate(-644 -2117)"><use fill="#ec7900" xlink:href="#f3yci"/></g><g transform="translate(-644 -2117)"><use fill="#db2e10" xlink:href="#f3ycj"/></g><g transform="translate(-644 -2117)"><use fill="#ec7900" xlink:href="#f3yck"/></g><g transform="translate(-644 -2117)"><use fill="#db2e10" xlink:href="#f3ycl"/></g><g transform="translate(-644 -2117)"><use fill="#ec7900" xlink:href="#f3ycm"/></g><g transform="translate(-644 -2117)"><use fill="#db2e10" xlink:href="#f3ycn"/></g><g transform="translate(-644 -2117)"><use fill="#ec7900" xlink:href="#f3yco"/></g><g transform="translate(-644 -2117)"><use fill="#db2e10" xlink:href="#f3ycp"/></g></g></svg>