<svg xmlns="http://www.w3.org/2000/svg" xmlns:xlink="http://www.w3.org/1999/xlink" width="60" height="60" viewBox="0 0 60 60"><defs><path id="hulxa" d="M390.51 2395.74c.42 0 .56-.19.67-.3.84-1.38.5-4.83-1.92-7.89l-.14.01a25.85 25.85 0 0 1-3.61-.02c.76.8 1.82 2.96 2.4 4.3.3.71-.02.72-.62.7-6.24-.19-17.7-.32-23.41-.33-.5 0-1.04-.1-1.09.39a9.5 9.5 0 0 0 .09 2.65c.1.45.17.44.57.46.95.06 1.94.05 2.89-.02 1.52-.12 4.9-.06 8 0v.05h1.96c2.25.05 12.02 0 14.21 0"/><path id="hulxb" d="M346.85 2365.81c.81 1.15 1.37 1.86 2.09 3 .37.6.2 1.3-.37 2-.68.83-.7 1.21-1.48 2.26l-1.22.02c-2.3-.05-4.25-.1-6.61.02-.47.03-.78-.12-.9.33-.18.7-.04 1.92.02 2.71.03.57-.02.56.6.54l.61-.03c3.16 0 12.98-.32 16.12-.12 1.12.07 2.54.13 3.66.07.47-.02.55 0 .67-.46-.04-.73-.14-1.9-.15-2.7-.01-.49-.68-.39-1.28-.39h-8.73c.82-1.12 1.02-1.58 1.66-2.5a1.5 1.5 0 0 0-.01-1.81c-.66-1-1.17-1.83-1.83-3l1.55-.03c.13 0 2.94.07 3.1.02.1-.03.1-.03.1-.2v-.88c0-.3-.5-.24-.61-.25l-2.9-.09c-5-.13-4.45-.14-9.19-.04-.53.01-.49.3-.5.85.05.62.57.66.98.68h.75c.1 0 3.78-.08 3.87 0"/><path id="hulxc" d="M339.6 2389.28l-.63.03c-.61.02-.56.03-.6-.54-.05-.8-.2-.44 0-1.13.11-.46.42-.31.89-.34 2.36-.12 4.3-.06 6.61-.01 1.95-.07 10.79-.03 12.74-.03.6 0 1.22-.1 1.28.38.1.8.1.35-.1 1.08-.12.45-.2.44-.67.46-1.12.06-2.29.05-3.4-.02-3.15-.2-12.97.11-16.13.12"/><path id="hulxd" d="M364.08 2376.66l-.62.03c-.61.02-.56.03-.6-.53-.05-.8-.2-2.02 0-2.71.11-.46.42-.31.89-.34 2.36-.12 4.3-.06 6.61-.01 1.95-.07 2.89-.03 4.84-.03 2.05 0 2.56-.15 3.86 1.45a144 144 0 0 1 3.04 3.87c1.42 1.74 4.9 5.98 6.23 7.86.6.85 1.31 1.74 2.03 2.95-1.27.05-5.15-.02-5.46-.04-3.15-.2-17.66.12-20.82.12l-.62.03c-.6.02-.56.03-.6-.53-.05-.8-.2-.45 0-1.14.11-.46.42-.31.89-.33 2.36-.13 16.9-.07 19.2-.02.69-.03 1.25-.04 1.77-.04-2.01-2.61-5.22-6.81-7.04-8.85-.53-.6-1.05-1.24-1.54-1.89-3.46.09-9.39.15-12.06.15"/><path id="hulxe" d="M358.63 2392.17l.62-.02c.61-.02.56-.03.6.53.05.8.2 2.02 0 2.7-.11.46-.42.32-.89.34-2.36.12-4.31.07-6.61.02-1.95.07-10.79.03-12.74.03-.6 0-1.22.1-1.28-.39-.1-.8-.1-1.92.1-2.65.12-.45.2-.43.67-.46a29.9 29.9 0 0 1 3.4.02c3.15.2 12.97-.11 16.13-.12"/><path id="hulxf" d="M348.58 2395.6c.08.74.37 1.7.95 2.29.64.67 2.34.96 3.18.53.78-.41 1.43-1.72 1.62-2.74l-5.75-.09zm-.36.38c.03-.12.05-.25.05-.4-2.34-.02-4.5-.02-5.82.04.04.7.26 1.37.64 1.88.56.76 1.5 1.05 2.46 1.06 1.58.02 2.24-.75 2.67-2.58z"/><path id="hulxg" d="M365.95 2395.65c.17 1.03.8 2.38 1.59 2.8.83.46 2.53.18 3.2-.49.59-.6.9-1.6.98-2.37a83.85 83.85 0 0 0-5.64.05zm8.75 3.04c.96 0 1.9-.28 2.47-1.04.4-.53.63-1.22.67-1.94-1.76-.04-3.85-.09-5.83-.12 0 .16.02.31.05.46.4 1.86 1.06 2.64 2.64 2.64z"/><path id="hulxh" d="M377.75 2398.5c.18 0 .18.57.18.73.02 1.17-.55.9-.96.93h-.75c-1.52-.03-4.2.04-5.72.06-3.28.05-25.43-.14-28.71-.07-.13 0-2.94.06-3.1.01-.1-.02-.09-.02-.09-.19v-1.26c0-.3.48-.24.6-.25.27-.01 2.93.04 3.2.03 2.5-.07 23.88.04 26.39 0l3.65-.02c1.4 0 3.9 0 5.3.04zm4.38.62c0 .62.11 1.06-.25 1.1-.73.08-1.6.2-1.86.1-.08-.03-.22-.03-.22-.2l-.01-1.34c0-.32.29-.27.38-.28l1.44-.07c.2 0 .51.01.52.69zm3.9.27c.04.68-.3.72-.53.72l-1.56.03c-.11 0-.38.12-.4-.2l-.03-1.24c0-.17.03-.32.1-.35.3-.12 1.27-.07 2.1-.05.4.02.3.46.33 1.09z"/><path id="hulxi" d="M369.08 2380.17h-.25c-.24.02-.22.02-.24-.2-.02-.33-.08-1.04 0-1.32.05-.18.17-.12.36-.13.95-.05 3.1-.03 4.03 0 .78-.03 1.16-.02 1.94-.02.83 0 1.03-.06 1.55.59 1.18 1.46 2.9 3.5 3.9 4.93.2.28.64.77.95 1.21.24.35 0 .29-.4.3-.71 0-1.69-.02-1.8-.03-1.25-.08-8.77.04-10.04.05h-.25c-.24.02-.22.02-.24-.2-.02-.33-.08-.78 0-1.06.05-.18.17-.12.36-.13a377.38 377.38 0 0 1 9.47-.02 68.75 68.75 0 0 0-2.77-3.28l-.62-.75c-1.38.03-4.88.06-5.95.06"/><path id="hulxj" d="M363.3 2380.17h-.25c-.24.02-.22.02-.24-.2-.02-.33-.08-1.04 0-1.32.05-.18.17-.12.36-.13.95-.05.04-.03.97 0 .78-.03 1.16-.02 1.94-.02.82 0 1.03-.06 1.55.59.04 3.7.1 2.48.11 6.14 0 .43.01.29-.4.3-.7 0-.7-.02-.8-.03-1.27-.08-1.97.04-3.24.05h-.25c-.24.02-.22.02-.24-.2-.02-.33-.08-.81 0-1.09.05-.18.17-.12.36-.13.95-.05 1.08-.03 2-.01l.8-.01c.04-2.28-.1-2.33-.09-4-1.39.03-1.5.06-2.58.06"/><path id="hulxk" d="M338.95 2380.17h-.25c-.24.02-.22.02-.24-.2-.02-.33-.08-1.04 0-1.32.05-.18.17-.12.36-.13.95-.05.04-.03.97 0 .78-.03 1.16-.02 1.94-.02.82 0 1.03-.06 1.55.59.04 3.7.1 2.48.11 6.14 0 .43.01.29-.4.3-.7 0-.7-.02-.8-.03-1.27-.08-1.97.04-3.24.05h-.25c-.24.02-.22.02-.24-.2-.02-.33-.08-.81 0-1.09.05-.18.17-.12.36-.13.95-.05 1.08-.03 2-.01l.8-.01c.04-2.28-.1-2.33-.09-4-1.39.03-1.5.06-2.58.06"/><path id="hulxl" d="M344.87 2380.17h-.25c-.24.02-.22.02-.24-.2-.02-.33-.08-1.04 0-1.32.05-.18.17-.12.36-.13.95-.05.04-.03.97 0 .78-.03 1.16-.02 1.94-.02.82 0 1.03-.06 1.55.59.04 3.7.1 2.48.11 6.14 0 .43.01.29-.4.3-.7 0-.7-.02-.8-.03-1.27-.08-1.97.04-3.24.05h-.25c-.24.02-.22.02-.24-.2-.02-.33-.08-.81 0-1.09.05-.18.17-.12.36-.13.95-.05 1.08-.03 2-.01l.8-.01c.04-2.28-.1-2.33-.09-4-1.39.03-1.5.06-2.58.06"/><path id="hulxm" d="M362.2 2396.41c.02.19-.6.2-.77.2-1.27 0-.99-.56-1.01-.97v-.75c.09-10.8.02-8.72 0-19.6 0-.14-.06-2.79-.01-2.95.03-.1.03-.09.2-.09H362c.32 0 .26.48.27.6.01.27-.04 2.77-.03 3.04-.11 11-.06 12.03-.02 20.52"/></defs><g><g transform="translate(-335 -2352)"/><g transform="translate(-335 -2352)"><use fill="#ec7900" xlink:href="#hulxa"/></g><g transform="translate(-335 -2352)"><use fill="#2177b8" xlink:href="#hulxb"/></g><g transform="translate(-335 -2352)"><use fill="#2177b8" xlink:href="#hulxc"/></g><g transform="translate(-335 -2352)"><use fill="#2177b8" xlink:href="#hulxd"/></g><g transform="translate(-335 -2352)"><use fill="#ec7900" xlink:href="#hulxe"/></g><g transform="translate(-335 -2352)"><use fill="#2177b8" xlink:href="#hulxf"/></g><g transform="translate(-335 -2352)"><use fill="#2177b8" xlink:href="#hulxg"/></g><g transform="translate(-335 -2352)"><use fill="#2177b8" xlink:href="#hulxh"/></g><g transform="translate(-335 -2352)"><use fill="#2177b8" xlink:href="#hulxi"/></g><g transform="translate(-335 -2352)"><use fill="#2177b8" xlink:href="#hulxj"/></g><g transform="translate(-335 -2352)"><use fill="#2177b8" xlink:href="#hulxk"/></g><g transform="translate(-335 -2352)"><use fill="#2177b8" xlink:href="#hulxl"/></g><g transform="translate(-335 -2352)"><use fill="#ec7900" xlink:href="#hulxm"/></g></g></svg>