<svg xmlns="http://www.w3.org/2000/svg" xmlns:xlink="http://www.w3.org/1999/xlink" width="145" height="145" viewBox="0 0 145 145"><defs><path id="45wsa" d="M1063.41 1803.62c.08-1.65-.18-2.83.88-2.86 2.17-.07 4.73-.2 5.5.11.22.1.3.48.28.94l-.06 3.27c-.05.85-.77.53-1.06.53l-4.12-.08c-.6-.01-1.5-.13-1.42-1.9zm10.89.57c-.02-1.65-.36-2.8.75-2.91 2.26-.22 4.93-.53 5.75-.27.23.08.68.09.68.55l.01 3.52c0 .84-.88.72-1.18.74l-4.42.17c-.64.03-1.57-.02-1.6-1.8zm11.47-3.09c11.4-.48 22.79-.34 34.19.43.59.02 6.51-.12 7.1-.07.26.01 1.34-.14 1.34.64v3.35c0 .42-.4.55-.88.5-.39-.04-5.93-.04-6.21-.04-7.3-.18-14.6-.16-21.9-.28-3.39-.05-6.87-.25-10.24-.16-.51.02-1.1.02-1.67 0-.91-.06-2.18.62-2.15-2.46 0-.41.01-1.94.42-1.9z"/><path id="45wsb" d="M1097.32 1784.2c-3.62-.03-8.23 4.45-8.03 8.22.32 6.28 3.74 8.47 10.13 8.36a5.3 5.3 0 0 0 3-1.34c2.88-2.44 4.45-6.14 2.18-11.19-1.24-2.76-4.3-4.1-7.28-4.05"/><path id="45wsc" d="M1161.38 1783.44c4.81 0 6.79 2.2 8.02 7.47.8 3.4-1.6 8.46-4.8 10.08-2.55 1.3-7.72.5-9.72-1.39a9.93 9.93 0 0 1-1-13.22c1.71-2.16 4.58-2.94 7.5-2.94"/><path id="45wsd" d="M1187.77 1793.31c1.85.03 2.8-.13 3.8-.1 1.2-.32 1.22-.9 1.29-2.11.15-2.93.13-5.98-.06-8.9-.14-2.11-.24-6.8-.44-9.58-.11.25-.45.33-.84.29l-8.37-.03c0 3.26.28 8.4.34 11-2.44-.1-5.66.11-8.07.23-1.21.07-1.5-.08-1.82 1.1-.04 2.05.14 4.94.27 7 .12 1.78 1.59.98 3.13.97 2.61 0 7.45.1 10.77.13zm-66.9-9.35a78.2 78.2 0 0 0-8.9-.05c-1.21.06-1.8.09-2.1 1.28-.6 2.22.25 5.8.38 7.84.1.22 2.8.02 3.06.02 5.1 0 9.75.43 14.85.25 6.02.13 11.07.27 17.25-.04 1.22-.07 1.8-.1 2.11-1.29.6-2.22.24-5.93.11-7.97-.1-.22-2.8-.02-3.06-.02-8.26.01-15.47.52-23.7-.02zm-47.7 5.77c-.15 3.44 1.57 3.66 2.74 3.68l7.95.15c.57 0 1.96.62 2.05-1l.13-6.34c.04-.89-.12-1.63-.54-1.81-1.5-.62-6.45-.34-10.64-.21-2.05.06-1.55 2.35-1.69 5.53z"/><path id="45wse" d="M1073.58 1739.57c-.04-3.25-.8-5.55 1.68-5.76 3.42-.3 7.54-.29 11.38-.32-.06.6-.13.17-.12 2.27.13 2.13.05 4.25.1 6.38l.03 1.02-9.51-.01c-1.42 0-3.52-.04-3.56-3.58"/><path id="45wsf" d="M1182.49 1767.8c-.65-1.4-1.26-2.17-1.77-3.6-2.5-7.12-4.93-14.26-7.35-21.4-8.73-.07-17.64-.09-26.3-.02-10.16.1-21.36-.86-31.52-.39-7.9.37-15.2-.14-23.1.07l-.77.02c-.03 5.64.06 11.92.05 17.55-.01 2.68-.14 4.8-.05 7.49 21.72.34 47.51.82 68.56.97.4.01 13.26-.67 22.25-.7zm9.69-.39c.46 1.42.22 3.58.22 5 0 .43-.4.55-.88.5-.39-.03-29.64-.03-29.92-.04-20.62-.5-40.24.07-60.88-.27-3.38-.06-6.86-.26-10.24-.16-1.62-.18-3.79.32-3.75-1.35a8.63 8.63 0 0 1-.02-2.11c-.06-8.71.14-17.77-.09-26.83-.05-2.13.03-4.26-.1-6.38 0-2.1.06-1.68.13-2.28.33-.05.57-.04.77-.03 1.45.06 4.31.14 5.05.13 7.27-.18 14.45.34 21.73.13 9.12-.28 20.29-.5 29.41-.47 13.43.05 19.76.16 33.19.26.97.05 2.33.24 2.64 1.43 3.38 8.68 7.5 17.13 10.44 25.97.73 2.18 1.59 4.32 2.3 6.5z"/></defs><g><g transform="translate(-1056 -1697)"/><g transform="translate(-1056 -1697)"><use fill="#db2e10" xlink:href="#45wsa"/></g><g transform="translate(-1056 -1697)"><use fill="#db2e10" xlink:href="#45wsb"/></g><g transform="translate(-1056 -1697)"><use fill="#db2e10" xlink:href="#45wsc"/></g><g transform="translate(-1056 -1697)"><use fill="#ec7900" xlink:href="#45wsd"/></g><g transform="translate(-1056 -1697)"><use fill="#ec7900" xlink:href="#45wse"/></g><g transform="translate(-1056 -1697)"><use fill="#db2e10" xlink:href="#45wsf"/></g></g></svg>