<svg xmlns="http://www.w3.org/2000/svg" xmlns:xlink="http://www.w3.org/1999/xlink" width="60" height="60" viewBox="0 0 60 60"><defs><path id="1nmia" d="M819.33 2375.45c1.18 1.14 11.68 11.02 12.86 12.16.27.26.7.55.84.5a4.02 4.02 0 0 0 2.48-2.37c-.28-.28-.57-.6-.88-.88-2.52-2.9-13.33-12.76-16.24-15.46l-2.64 2.64c1.99 1.74 1.56 1.58 3.58 3.4"/><path id="1nmib" d="M830.38 2383.72c-.03 1.64.15 6.13.12 7.77 0 .37-.11.88-.25.95-1.2.6-2.23.5-3.42.08 0-.4-.02-.83 0-1.25a77.5 77.5 0 0 1-.06-9.9h3.73c-.17 2.64.01-.37-.12 2.35"/><path id="1nmic" d="M830.73 2392.16c.83 0 1.65.01 2.48.03.14 0 .15.52.15.66 0 1.06-.43.82-.74.84h-.58c-1.16-.03-2.35.04-3.52.06-2.5.04-8.6-.16-11.11-.1-.1 0-3.16.06-3.28.02-.07-.03-.07-.03-.07-.17v-1.15c0-.27.37-.22.46-.23.2-.01 3.15.03 3.35.03h12.86zm6.43.59c0 .56.1.96-.22 1-.67.07-1.45.18-1.7.09-.06-.03-.2-.03-.2-.19v-1.2c0-.3.26-.26.35-.26l1.3-.06c.19-.01.46 0 .47.62zm3.55.24c.02.62-.28.66-.5.66l-1.4.03c-.1 0-.36.1-.37-.18l-.02-1.13c-.01-.16.02-.29.1-.32.26-.11 1.14-.06 1.88-.04.37.01.28.42.3.98z"/><path id="1nmid" d="M813.1 2380.3c-1.26 1.24-12.5 11.82-13.77 13.04-.29.27-.76.58-.9.53a4.3 4.3 0 0 1-2.66-2.53c.3-.3.61-.64.94-.94 2.7-3.11 16-15.54 19.11-18.43l2.83 2.83c-2.13 1.86-3.38 3.55-5.55 5.5"/><path id="1nmie" d="M812.61 2372.92c-2.57 2.28-19.94 19.25-21.15 20.42-.29.27-.76.58-.9.53a4.3 4.3 0 0 1-2.66-2.53c.3-.3.61-.64.94-.94 2.7-3.11 18.51-18.05 21.62-20.94l2.33 2.33c.3.34.53.5-.18 1.13"/><path id="1nmif" d="M810.25 2384.74c-.03 1.64.15 6.13.12 7.77 0 .37-.11.88-.25.95-1.2.6-2.23.5-3.42.08 0-.4-.02-.83 0-1.25a77.53 77.53 0 0 1-.06-9.9h3.73c-.17 2.64.01-.37-.12 2.35"/></defs><g><g transform="translate(-785 -2352)"/><g transform="translate(-785 -2352)"><use fill="#009e34" xlink:href="#1nmia"/></g><g transform="translate(-785 -2352)"><use fill="#009e34" xlink:href="#1nmib"/></g><g transform="translate(-785 -2352)"><use fill="#ec7900" xlink:href="#1nmic"/></g><g transform="translate(-785 -2352)"><use fill="#009e34" xlink:href="#1nmid"/></g><g transform="translate(-785 -2352)"><use fill="#ec7900" xlink:href="#1nmie"/></g><g transform="translate(-785 -2352)"><use fill="#009e34" xlink:href="#1nmif"/></g></g></svg>