<svg xmlns="http://www.w3.org/2000/svg" xmlns:xlink="http://www.w3.org/1999/xlink" width="145" height="145" viewBox="0 0 145 145"><defs><path id="uj0ga" d="M671.92 1721.26l.33-.52c2.2.14 4.4.23 6.6.44.5.05 1.07.46 1.45.81.74.7 1.4 1.45 2.03 2.2 4.13 4.99 8.31 9.95 12.34 14.99 2.6 3.24 5.01 6.6 7.77 10.29l13.82.26a16.7 16.7 0 0 1-2.27-2.51l-.53-.62c-5.64-6.68-11.3-13.36-16.9-20.06-1.42-1.7-2.66-3.48-4.22-5.53 1.52-.08 2.6-.07 3.65-.21 1.83-.24 2.98.24 3.9 1.69 1.18 1.84 2.7 3.54 4.16 5.26 5.72 6.74 11.49 13.45 17.21 20.19.5.58.89 1.21 1.34 1.9 6.92.1 13.85.15 20.79.07 4.45-.05 8.9.04 13.36.02 4.28-.02 7.22-.09 11.44-.15 1.44-.02 2.94.48 2.72 2.15a74.28 74.28 0 0 0-.41 12.68c.32 7.16 0 14.5.4 21.44-8.49-.1-17.71-.23-27.23-.13-5.7.06-11.38-.1-17.08.05-7.67.19-15.28.39-22.94.45-13.97.13-27.88-.26-41.85-.3-1.58 0-1.37-.09-1.51-.66-.15-.6-.07-1.85.03-2.96.08-1 .4-.75 1.37-.79 5.16-.22 9.96.24 15.12.1 18.23-.46 36.31-.17 54.57.2 11.3.22 19.42-.44 30.78-.69-.31-3.47-.02-11.3 0-14.79.02-2.4-.15-4.82 0-7.27.06-.94-.45-1.37-1.94-1.38-8.4-.08-16.2-.01-24.59.25-4.96.15-9.94.01-14.92.05-8.4.07-16.8.2-25.2.25-3.23.02-6.48-.16-9.73-.2-7.36-.07-17.68.04-25.04-.06-1.4.1.31-7.72 0-9.03 5.83-.64 14.06.13 20.21.17 5.12-.03 10.24 0 15.34.06a328.46 328.46 0 0 1-4.84-5.66c-4-4.76-7.93-9.55-12-14.27-2.4-2.79-5.01-5.45-7.53-8.18zm3.32 82.2c.3-5.76 3.44-7.77 9.3-7.66.92.01 2 .6 2.74 1.22 2.64 2.23 4.08 5.62 2 10.25-1.14 2.53-3.95 3.76-6.67 3.71-3.32.04-7.54-4.07-7.37-7.53zm66.85 7.6c-2.53 0-5.03-.69-6.52-2.59a8.82 8.82 0 0 1 .87-11.63c1.74-1.66 6.24-2.36 8.45-1.23 2.78 1.43 4.88 5.88 4.18 8.87-1.07 4.64-2.79 6.59-6.98 6.58z"/><path id="uj0gb" d="M671.97 1801.16c.14 3.2-1.46 3.4-2.54 3.42l-7.37.14c-.52 0-1.81.57-1.9-.94l-.11-5.87c-.05-.82.1-1.5.5-1.68 1.38-.57 5.97-.32 9.85-.2 1.9.07 1.44 2.18 1.57 5.13zm81.4 2.31c-.13-1.92-.3-4.6-.26-6.49.3-1.1.56-.96 1.69-1.02 2.23-.11 5.21-.31 7.47-.22-.06-2.77.06-6.15.16-8.9l-.04-.89 8.5.09c.17 2.3-.13 6 .01 8.14.18 2.71.2 5.54.05 8.25-.06 1.13-.08 1.67-1.19 1.96-.92-.03-1.8.12-3.52.1-3.07-.04-7.56-.13-9.98-.13-1.43 0-2.79.75-2.9-.89zm-7.05 8.58l15.5.24 8.22-.06c.3.02 1.56-.12 1.56.61v3.15c0 .4 0 .41-.23.48-.43.12-7.72-.05-8.06-.05-8.5-.18-24.3-.2-32.82-.32-3.95-.06-8.01-.24-11.95-.16a29 29 0 0 1-1.95-.02c-1.07-.04-2.54.6-2.5-2.3 0-.4.01-1.83.49-1.8 10.54-.2 21.13-.03 31.74.23zm-41.37-.42l3.57.17c.25.02.96-.09.96.7l-.02 3.32c0 .43-.36.44-.55.5-.66.26-2.82-.04-4.64-.25-.89-.1-.61-1.2-.6-2.74.02-1.68.77-1.72 1.28-1.7zm-10.16-.33c2.04-.06 4.45-.2 5.18.11.2.08.28.45.26.88l-.07 3.09c-.04.79-.72.49-1 .49l-3.87-.08c-.57-.01-1.4-.12-1.33-1.8.07-1.55-.17-2.66.83-2.69zm35.43-15.44c.12 1.89.45 5.32-.1 7.39-.3 1.1-.83 1.12-1.96 1.18-5.73.3-11.58.17-17.16.04-3.66.13-16.01-.06-16.04-.13-1.32.37-1.68-4.9-.91-7.38.3-1.1.83-1.13 1.96-1.2 2.7-.13 5.54-.11 8.25.06 7.62.5 15.47.03 23.12.01.25 0 2.75-.18 2.84.03z"/></defs><g><g transform="translate(-644 -1697)"/><g transform="translate(-644 -1697)"><use fill="#009e34" xlink:href="#uj0ga"/></g><g transform="translate(-644 -1697)"><use fill="#ec7900" xlink:href="#uj0gb"/></g></g></svg>