<svg xmlns="http://www.w3.org/2000/svg" xmlns:xlink="http://www.w3.org/1999/xlink" width="145" height="145" viewBox="0 0 145 145"><defs><path id="asmka" d="M321.39 1761.66l-1.06.05c-1.04.03-.95.05-1.02-.91-.09-1.36-.34-3.44-.02-4.62.2-.77.73-.52 1.53-.57 4.03-.2 7.34-.11 11.26-.03 3.32-.1 4.92-.04 8.25-.05 3.49 0 4.35-.25 6.57 2.49 1.7 2.1 4.23 5.28 5.18 6.58 2.42 2.96 8.36 10.18 10.62 13.4 1 1.44 1.9 2.6 1.55 4.93-2.06.2-6.87.06-7.4.03-5.36-.35-30.08.2-35.46.2l-1.06.05c-1.04.03-.95.05-1.02-.91-.09-1.36-.34-.76-.02-1.94.2-.77.73-.52 1.53-.57 4.03-.2 28.8-.11 32.72-.03 1.17-.04 2.12-.05 3.01-.06-3.44-4.45-8.89-11.6-12-15.08-.9-1.02-1.8-2.1-2.62-3.21-5.9.14-16 .24-20.54.25zm-51.63 18.27c1.91-.13 3.9-.14 5.81-.04.8.04.93.01 1.14.79.33 1.24.33.48.17 1.84-.1.82-1.16.65-2.18.65-3.33 0-18.38.06-21.7-.05-3.92.09-7.24.18-11.27-.03-.79-.04-1.32.2-1.52-.57-.32-1.17-.07-.58.02-1.93.06-.96-.03-.94 1.01-.91l1.06.04c5.39.01 22.1.56 27.46.2zm12.18 3.23l-1.06.05c-1.04.03-.95.05-1.02-.91-.09-1.36-.34-.76-.02-1.94.2-.77.73-.52 1.53-.57 4.03-.2 7.34-.11 11.26-.03 3.32-.11 18.38-.04 21.7-.05 1.02 0 2.09-.16 2.18.66.16 1.36.16.6-.17 1.84-.2.77-.34.74-1.14.78a51 51 0 0 1-5.8-.03c-5.36-.35-22.08.2-27.46.2zm5.76-42.88h-1.28c-.7-.04-1.67-.04-1.64-2.03 0-.95-.07-1.42.83-1.44 8.08-.18 7.13-.16 15.65.07.45.01 4.5.34 4.95.37.2.01 1.02-.09 1.02.42v2.16c0 .27.01.28-.14.32-.28.08-5.07-.02-5.29-.03l-2.64.04c1.64 2.28 3.3 4.54 4.95 6.81.72.98.4 1.84-.26 2.67-1.23 1.56-2.98 3.98-4.38 5.88 5.62-.01 12.7.02 14.86.01 1.02 0 2.17-.17 2.18.66.03 1.36.2 3.35.26 4.6-.2.77-.34.74-1.14.79-1.9.1-4.32 0-6.23-.12-5.36-.35-22.08.2-27.46.2l-1.06.05c-1.04.03-.95.05-1.02-.91-.1-1.36-.34-3.44-.02-4.62.2-.77.73-.52 1.53-.57 4.03-.2 7.34-.11 11.26-.03a98.8 98.8 0 0 1 2.07-.03c1.34-1.8 2.93-4.05 4.08-5.46 1.32-1.62 1.36-1.86-.01-3.52-1.73-2.1-3.61-4.08-5.17-6.3-.14-.14-5.72.01-5.9.01zm-45.4 15.26c5.39.01 22.1.56 27.46.2 1.91-.11 3.49-.33 5.4-.23.79.04.93 0 1.14.78.33 1.25.74 3.37.58 4.73-.1.82-1.16.65-2.18.65-3.33 0-18.38.06-21.7-.05-3.92.09-7.24.18-11.27-.03-.79-.04-1.32.2-1.52-.57-.32-1.17-.07-3.26.02-4.61.07-.96-.03-.94 1.01-.91l1.06.04z"/><path id="asmkb" d="M314.36 1788.09c.09 0 .6-.04 1.06-.05 1.04-.03.95-.05 1.02.91.09 1.35.34 3.44.02 4.62-.2.77-.73.52-1.53.56-4.03.21-7.34.12-11.27.03-3.32.12-18.37.05-21.7.05-1.01 0-2.08.17-2.18-.65a13.8 13.8 0 0 1 .18-4.52c.2-.77.34-.75 1.14-.79 1.9-.1 3.9-.08 5.8.04 5.36.35 22.08-.2 27.46-.2"/><path id="asmkc" d="M274.73 1794.2c.09 0 .6.04 1.06.05 1.04.03.95.05 1.02-.91.09-1.36.34-3.44.02-4.62-.2-.77-.73-.52-1.53-.56-4.03-.21-7.34-.12-11.27-.03-3.32-.12-18.37-.05-21.7-.06-1.01 0-2.08-.16-2.18.66a13.8 13.8 0 0 0 .18 4.52c.2.77.34.74 1.14.79 1.9.1 3.9.08 5.8-.04 5.36-.35 22.08.2 27.46.2"/><path id="asmkd" d="M342.23 1794.09h-3.33v-.08c-5.3-.12-11.04-.2-13.64 0-1.62.11-3.3.13-4.93.03-.67-.04-.79-.02-.96-.8a16.21 16.21 0 0 1-.15-4.5c.08-.83.99-.66 1.85-.66 10.22.02 20.17.44 30.35.44l4.54-5.6a76.96 76.96 0 0 0 8.28.02l-9.66 10.62c-.19.2-.42.53-1.14.53-3.74 0-7.37.09-11.21 0zm22.03-11.18v.01z"/><path id="asmke" d="M258.27 1793.92c.13 1.42.64 3.27 1.61 4.38 1.11 1.27 4 1.84 5.43 1 1.33-.78 2.44-3.27 2.76-5.2-3.02-.06-6.5-.13-9.8-.18zm-.61.75c.05-.24.08-.5.09-.75-4-.06-7.68-.06-9.92.05a7.26 7.26 0 0 0 1.1 3.6c.94 1.44 2.54 1.98 4.18 2 2.7.04 3.82-1.41 4.55-4.9z"/><path id="asmkf" d="M324.57 1794.01c.29 1.75 1.37 4.06 2.7 4.78 1.43.78 4.33.3 5.45-.83 1-1.03 1.54-2.75 1.67-4.05-3.98-.05-7.62-.05-9.6.09zm14.91 5.18c1.63 0 3.24-.47 4.2-1.77a6.15 6.15 0 0 0 1.14-3.3c-3-.07-6.56-.15-9.92-.2 0 .27.03.53.08.77.7 3.17 1.8 4.5 4.5 4.5z"/><path id="asmkg" d="M301.81 1799.32l6.22.05c4.27.07 50.81.18 55.1.3.45 0 4.98-.08 5.44-.05.2.01 1.02-.09 1.02.42v2.16c0 .27 0 .28-.15.32-.28.08-5.06-.02-5.28-.03-5.59-.11-53.46-.1-59.05-.17-2.6-.04-5.26-.17-7.85-.1-.39 0-.83 0-1.28-.02-.7-.03-1.67.41-1.64-1.58 0-.26 0-1.25.32-1.23 2.38-.05 4.77-.07 7.15-.07zm-13.74-.05l2.45.11c.17.02.66-.06.66.48l-.01 2.28c0 .3-.25.3-.38.35-.46.17-1.93-.04-3.18-.18-.61-.07-.42-.81-.42-1.88.01-1.15.53-1.18.88-1.16zm-6.97-.22c1.4-.05 3.05-.14 3.55.07.14.06.2.3.18.6l-.04 2.12c-.03.54-.5.34-.69.34l-2.65-.05c-.4 0-.97-.08-.92-1.23.05-1.07-.12-1.83.57-1.85z"/></defs><g><g transform="translate(-232 -1697)"/><g transform="translate(-232 -1697)"><use fill="#009e34" xlink:href="#asmka"/></g><g transform="translate(-232 -1697)"><use fill="#ec7900" xlink:href="#asmkb"/></g><g transform="translate(-232 -1697)"><use fill="#ec7900" xlink:href="#asmkc"/></g><g transform="translate(-232 -1697)"><use fill="#ec7900" xlink:href="#asmkd"/></g><g transform="translate(-232 -1697)"><use fill="#009e34" xlink:href="#asmke"/></g><g transform="translate(-232 -1697)"><use fill="#009e34" xlink:href="#asmkf"/></g><g transform="translate(-232 -1697)"><use fill="#009e34" xlink:href="#asmkg"/></g></g></svg>