<svg xmlns="http://www.w3.org/2000/svg" xmlns:xlink="http://www.w3.org/1999/xlink" width="145" height="145" viewBox="0 0 145 145"><defs><path id="a2tda" d="M332.5 843.58c-1.15.2-1.64 1.02-2.16 1.98-.96 1.78 1.6 4.76 3.72 4.32 1.88-.4 2.51-1.56 2.52-3.01.03-2.4-1.66-3.69-4.08-3.29zm-10.25 16.58c.52-1.17.07-2.28-.63-3.3-1.29-1.85-3.46-1.34-4.73-.3-1.3 1.06-1.84 2.66-.32 4.59 1.9 2.43 4.45 1.28 5.68-.99z"/><path id="a2tdb" d="M264.1 853.44c-2.3 1.18-5.04.7-5.25-2.4-.16-2.44 1.2-3.45 2.85-3.6 1.65-.14 3.72.67 3.74 2.93 0 1.23-.25 2.4-1.34 3.07"/><path id="a2tdc" d="M289.2 914.04c-.07-5-1.87-5.39-7.25-5.39-7.56 0-15.36-.25-22.94.25-.94.06-.73-.1-.73.84 0 1.72-.97 7.07.7 7.13 1.7.05 3.22-.1 4.25-.08 2.6.25 12.6.03 18.02-.03.1 7.52.19 17.72-.06 19.02-.15.33.32 1.3.6 1.33 1.95.14 4.77.32 6.7-.03.7-.23 1.22-1.22 1.04-2.04-.08-3.1-.02-17.77-.34-21"/><path id="a2tdd" d="M350.53 916.65c-2.72.49-5.03.12-7.76.25-6.34.31-15.42-.38-21.98-.03-1.42.27-2.2-.53-2.08-1.86.21-2.37-.47-3.27-.16-5.63.1-.85.69-1.16 1.5-1.13 6.88.29 13.73.45 20.63.44l-3.83-6.6c-1.16-1.64-1.15-3.09-1.13-5l.21-8.7-.26-1.33c-2.31 1.36-6.34 6.84-7.94 9.08-.83 1.1-2.52 1.58-3.69 1.53-4.55.5-12.04-.23-16.7.08-1.29.1-2.4.32-2.45-.86l-.24-5.17c.42-1.85-.26-1.94 1.56-2.09.89-.07 1.78 0 2.67 0 3.7-.01 10.6.07 14.1.1 4.3-4.94 7.37-8.07 11.48-12.68 2.6-2.92 7.48-3.7 9 .9.38 1.19.55 2.47.6 3.72.2 4.63-.02 10.62.16 15.26.03.6.23 1.25.52 1.78 3.12 7.2 4.68 9.91 7.38 14.98.74 2.17 1.36 2.72-1.6 2.96"/><path id="a2tde" d="M288.75 860.64c3.19 0 6.63.15 9.81.15.7 0 1.32.19 1.13.85-.52 1.87-2.16 10.94-3.1 10.94-1.68 0-3.43-.1-5.1 0-.68.04-.93.04-1.03-.23-.23-.64-.48-2-.65-2.66-3.71 1.4-5.07-5.03-1.18-5.31l-.61-3.07c-.14-.68.05-.67.73-.67"/><path id="a2tdf" d="M313.67 875.01l-9.51.02c-.7 0-1.05.3-.97.98.26 2.03 1.62 10.97 3.4 11.02 1.67.06 3.04.15 4.71 0 .68-.06 1.01-.24 1.18-.91l.5-1.98c3.87.8 5.13-4.45 1.19-5.31l.6-3.07c.14-.67-.4-.75-1.1-.75"/><path id="a2tdg" d="M311.46 850c-1.84 1.56 1.22 4.66 2.7 3.49 3.88-3.11 8.69-2.33 10.28.27 3.54 5.13 3.96 5.6 7.18 10.73.47.73 1.73 2.68 3.34 1.78 1.68-.71 2.93-1.86 4.36-2.65 2.3-.98.24-4.67-1.82-3.74-1.25.5-1.75 1.31-3.08 1.8-2.43-4.52-5.45-8.21-7.54-11.29-2.47-3.63-10.6-4.84-15.42-.39"/><path id="a2tdh" d="M305.67 905.25c-.03 2.34.11 4.73.16 7.06.1 5.62-.4 19.3-.25 24.92 0 .15.07 2.42.08 3.95h14.44c2.1.02 4.2.05 6.28.1.35-.03.37 1.3.37 1.65.02 2.68-1.08 2.08-1.87 2.13-.5.03-1 .02-1.45.01-2.93-.08-5.95.09-8.89.14-6.33.1-21.73-.4-28.06-.25a100 100 0 0 1-5.99.04c-.18-.06-.17-.07-.17-.44v-2.9c0-.68.94-.55 1.16-.56.52-.04 5.66.08 6.17.06l14.06.01c0-1.3.09-4.6.07-4.98l.03-28.82c0-.7 0-1.4.02-2.11l-15.34.02a241.3 241.3 0 0 1-5.57-.1c-.31.03-.3-1.29-.3-1.65.03-2.68 1-2.08 1.7-2.12.44-.03.9-.03 1.29-.01 2.6.08 5.28-.08 7.9-.13 5.62-.09 23.83.3 29.45.16.22 0 5.04-.14 5.32-.03.15.06.14.07.14.44l-.05 2.9c-.02.68-.84.55-1.04.56-.46.04-5.02-.09-5.48-.07zm30.68 37.43c0 1.43.26 2.43-.56 2.52-1.68.2-3.66.47-4.28.24-.17-.07-.5-.08-.5-.48l-.01-3.05c0-.73.65-.63.88-.64l3.29-.16c.47-.02 1.16.02 1.18 1.57zm8.95.62c.07 1.55-.7 1.65-1.23 1.66l-3.57.06c-.26 0-.88.28-.92-.45l-.06-2.84c-.02-.4.05-.74.24-.82.67-.27 2.9-.15 4.78-.1.92.04.7 1.06.76 2.49z"/><path id="a2tdi" d="M258.23 924.4c-.31.03-.34-1.65-.34-2 .03-2.4.57-2.26 1.27-2.3 4.67-.28 10.89.43 12.96.37.22 0 5.04.03 5.32.14.15.06.14.07.14.44l-.05 2.9c-.02.68-.84.55-1.04.56-.46.04-5.02-.08-5.48-.07l-7.2.06c-1.87-.01-3.72-.05-5.58-.1"/><path id="a2tdj" d="M331.33 920.31c-.31-.02-.4 2.35-.4 2.71-.17 2.04 1.12 1.58 1.82 1.62 4.67.28 11.55-.19 13.62-.14.22.01 5.04-.03 5.32-.14.15-.06.14-.06.14-.43l-.05-2.9c-.02-.68-.84-.55-1.04-.57-.46-.03-5.02.1-5.48.07-4.64-.03-9.3-.35-13.93-.22"/><path id="a2tdk" d="M280.54 838.85c2.1-.14 1.6 4.4.04 4.27-4.97-.38-8.2 2.22-8.28 5.9-.03 6.23-.24 6.7-.01 12.75.03.87.09 3.19-1.75 3.35-1.79.37-3.46.12-5.1.28-2.44.48-2.83-3.72-.6-4.11 1.3-.3 2.18.09 3.56-.26-.54-5.1-.14-9.86-.15-13.57-.02-4.4 5.8-9.55 12.29-8.6"/><path id="a2tdl" d="M281.67 852.36c-.83 1.1-2 1.66-3.78.98-2-.77-2.43-4.4-.64-5.27.97-.46 1.85-.84 2.9-.38 2.23.96 2.89 2.84 1.52 4.67"/><path id="a2tdm" d="M295.35 874.87c-1.52-.19-3.7.02-5.02-.03-1.48.02-2.63.05-3.32 1.27-.9 1.6-1.6 2.47-2.48 4.07-1.15 2.12-2.74 4.26-4.07 6.73-3.31-2.5-10.98-7.93-14.52-10.48-2.24-1.6-7.5-1.54-7.92 1.95l-.04 15.76c.06 3.33.2 6.74.46 10.06.07 1.45.55 1.36 1.63 1.52 1.6-.1 3.23-.13 4.82-.35 1.85-.27 2.23-.77 2.22-2.64-.02-4.86-.8-9.54.02-14.46 4.5 2.27 8.7 6.31 13.4 8.84 1.5.8 1.51.96 2.48-.36 4.01-5.48 9.9-13.86 13.66-20.37.6-1.06-.12-1.37-1.32-1.51"/><path id="a2tdn" d="M326.84 932.27c-.01 1.07.12 2.63.08 4.4-.04 1.54-5 .77-7.06.74-.89 0-1.21.2-1.28-.9-.35-5.26.18-13.23.15-15.13-.01-.56.62-1.35 1.17-1.39a8.23 8.23 0 0 1 2.48.11c1.22.29 2.6.32 3.85.55.75.14.91 1.14.82 2.42-.07 3.21.12 5.86-.2 9.2"/><path id="a2tdo" d="M304.74 872.36c-.2.45-.4 1.18.58.53 4.29-2.84 5.15-7.26 3.12-10.94-1.81-3.3-1.05-5.25-.45-6.59.2-.45.4-1.18-.57-.53-3.39 2.24-4.64 5.46-4.02 8.53.17.82.47 1.63.9 2.4 1.8 3.3 1.05 5.26.44 6.6"/><path id="a2tdp" d="M298.28 857.93c.2.45.85 2.07-.13 1.42-4.29-2.84-5.46-7.43-3.44-11.11 1.81-3.3 1.27-5.87.67-7.2-.2-.46-.75-1.29.23-.64 4.29 2.84 5.6 7.2 3.57 10.89-1.81 3.3-1.5 5.3-.9 6.64"/></defs><g><g transform="translate(-232 -820)"/><g transform="translate(-232 -820)"><use fill="#a4199e" xlink:href="#a2tda"/></g><g transform="translate(-232 -820)"><use fill="#a4199e" xlink:href="#a2tdb"/></g><g transform="translate(-232 -820)"><use fill="#a4199e" xlink:href="#a2tdc"/></g><g transform="translate(-232 -820)"><use fill="#a4199e" xlink:href="#a2tdd"/></g><g transform="translate(-232 -820)"><use fill="#a4199e" xlink:href="#a2tde"/></g><g transform="translate(-232 -820)"><use fill="#a4199e" xlink:href="#a2tdf"/></g><g transform="translate(-232 -820)"><use fill="#ec7900" xlink:href="#a2tdg"/></g><g transform="translate(-232 -820)"><use fill="#ec7900" xlink:href="#a2tdh"/></g><g transform="translate(-232 -820)"><use fill="#ec7900" xlink:href="#a2tdi"/></g><g transform="translate(-232 -820)"><use fill="#ec7900" xlink:href="#a2tdj"/></g><g transform="translate(-232 -820)"><use fill="#ec7900" xlink:href="#a2tdk"/></g><g transform="translate(-232 -820)"><use fill="#a4199e" xlink:href="#a2tdl"/></g><g transform="translate(-232 -820)"><use fill="#ec7900" xlink:href="#a2tdm"/></g><g transform="translate(-232 -820)"><use fill="#ec7900" xlink:href="#a2tdn"/></g><g transform="translate(-232 -820)"><use fill="#ec7900" xlink:href="#a2tdo"/></g><g transform="translate(-232 -820)"><use fill="#ec7900" xlink:href="#a2tdp"/></g></g></svg>