<svg xmlns="http://www.w3.org/2000/svg" xmlns:xlink="http://www.w3.org/1999/xlink" width="145" height="145" viewBox="0 0 145 145"><defs><path id="2kb5a" d="M359.56 1337.03c.16-2.83.34-7.86-.58-7.88-5.32.07-7.4.18-12.73.16-.02-.95.04-1.56.06-2.55.05-4.37.68-10.59-.28-14.85-1.15-5.12-2.62-8.95-8.1-10.48-6.86-1.92-12.65-2.4-18.62 1.61a11.02 11.02 0 0 0-4.97 7.7 106.78 106.78 0 0 0-.82 24.29c.12 1.4 1.16 1.57 2.4 1.63 2.5.14 5.86.09 8.18.26 2.61.18 6.54.3 9.42.47 1.02-2.42 1.06-4.27.27-6.87-.17-.53-1.18-.24-1.88-.39-2.74.1-7.67 0-10.59-.5-.04-.58 0-3.8.02-4.48.08-3.9.04-8.86.8-12.72-.3-1.76 1.26-5.32 4.76-5.32 2.09 0 8.59.14 9.5.84 1.88 1.44 2.54 4.86 2.45 8.5-.14 6.5-1.08 13.5-.03 19.02.23 1.84 1.74 1.42 3.1 1.47 2.5.09 5 .26 7.51.26 3.12 0 3.21-.24 6.65-.06 1.72.08 3.46.18 3.48-.11"/><path id="2kb5b" d="M342.2 1356.34c-.04-6.18.5-15.77-.35-15.96-.34-.07-.68-.17-1.02-.19-.98-.05-1.95-.05-2.93-.1-.7-.04-2.74.01-2.91.99-.08.4-.16.81-.15 1.21.05 1.3-.3 8.25-.19 9.56 0 1.53-.05 2.08-.1 4.23 0 .06-.08.52.77.55l6.4-.02a.5.5 0 0 0 .48-.27"/><path id="2kb5c" d="M328.89 1340.38c-.04 5.21.13 17.3-.33 21.07l-7.27-.04c-.04-.24-.07-.5-.06-.74.05-1.3 0-14.5.1-15.81 0-1.53-.05-2.08-.1-4.22 0-.06-.08-.53.78-.56l6.4.02a.5.5 0 0 1 .48.28"/><path id="2kb5d" d="M338.08 1264.68c1.87-1.43 3.21-2.77 4.93-3.94 1.15-.78 1.47-.94 1.6.67.3 4.17 0 7.16-.04 10.36-1.7.01-3.27-.01-4.84.03-2.38.07-4.74.26-7.13.25-3.9 0-7.83-.1-11.75-.2-.88.2-1.2-.02-1.03-.38-.17-3.1.14-6.44.1-9.84-.03-1.64-.19-2.11 1.53-.75 1.13.9 3.28 1.83 4.38 2.78 1.17 1 1.68 1.06 2.68.06.9-.9 1.58-1.86 2.43-2.8.6-.66.67-.97 1.41-1.75 2.1 2.07 3.64 3.45 5.73 5.5"/><path id="2kb5e" d="M323.49 1282.44c.8 1 1.85 1.45 3.36.7 1.7-.83 1.85-4.27.23-4.97-.88-.38-1.67-.68-2.56-.2-1.89 1.04-2.34 2.84-1.03 4.47"/><path id="2kb5f" d="M340.15 1283.98c1.97.76 4.5.21 4.68-2.5.14-2.15-1.31-2.98-2.74-2.92-1.4.06-3.08.85-3.09 2.82 0 1.08.22 2.13 1.15 2.6"/><path id="2kb5g" d="M274.65 1325.14c1.47 1.82 3.43 2.64 6.22 1.29 3.16-1.53 3.43-7.82.43-9.11-1.62-.7-3.08-1.25-4.73-.36-3.5 1.9-4.35 5.18-1.92 8.18"/><path id="2kb5h" d="M266.35 1347.65c-.1-3.5-.29-7.29.39-7.38.33-.05.67-.1 1.01-.12.98-.03 1.96-.03 2.93-.07.7-.02 2.74.01 2.92.63.07.25.16.51.14.77-.05.82.3 5.2.19 6.02 0 .67.08 1.04.06 1.65-.03.76-.77 2.11-1.86 3.17-.6.57-3.33 4.04-3.98 4.58-.65.72-.85 1-1.74 2.03-.03.03-.17.3-.81-.25l-4.72-4.27c-.17-.14-.24-.3-.24-.45 1.85-1.96 4.2-4.85 5.7-6.31"/><path id="2kb5i" d="M279.68 1340.38c.04 5.13-.13 16.94.3 20.89l3.4-.03 3.92.01c.03-.19.04-.38.04-.58-.05-1.3 0-14.5-.1-15.81 0-1.53.05-2.08.1-4.22 0-.06.08-.53-.78-.56l-6.4.02a.5.5 0 0 0-.48.28"/><path id="2kb5j" d="M293.97 1282.19c.86.96 2 1.4 3.62.68 1.84-.81 2-4.14.25-4.83-.94-.37-1.79-.66-2.75-.19-2.03 1-2.53 2.75-1.12 4.34"/><path id="2kb5k" d="M310.67 1283.33c1.9.75 4.35.22 4.52-2.41.14-2.09-1.26-2.89-2.64-2.83-1.37.06-2.99.83-3 2.73 0 1.04.21 2.06 1.12 2.51"/><path id="2kb5l" d="M259.08 1271.5c-2.35-.23-4.21-.67-6.3-.76-1.4-.07-1.75-.03-.99 1.4 1.98 3.7 3.84 6.07 5.59 8.77 1.44-.88 2.76-1.72 4.11-2.5 2.05-1.19 4.17-2.26 6.19-3.5 3.32-2.05 6.59-4.2 9.86-6.32.86-.29 1.01-.65.67-.86-1.51-2.72-3.57-5.4-5.35-8.3-.86-1.4-.98-1.9-1.7.16-.48 1.36-1.81 3.27-2.24 4.65-.45 1.45-.85 1.78-2.24 1.45-1.24-.3-2.33-.76-3.56-1.1-.86-.25-1.09-.48-2.13-.75-.68 2.85-1.24 4.83-1.91 7.66"/><path id="2kb5m" d="M281.46 1279.58c-.16 1.35-.87 2.35-2.67 2.53-2.03.2-4.12-2.82-3.05-4.37.59-.84 1.13-1.55 2.23-1.61 2.31-.13 3.76 1.24 3.5 3.45"/><path id="2kb5n" d="M267.67 1288.96c-1.25 1.67-3.7 2.53-5.3.32-1.27-1.76-.49-3.21.75-3.9 1.23-.69 3.08-.9 4.14.77.58.91.96 1.92.41 2.8"/><path id="2kb5o" d="M367.2 1265.62c-1.02-.12-2.38-.05-3.22-.06-1.05-.03-1.9-.05-2.43-.97a75.38 75.38 0 0 1-2.17-4.04c-.48-.95-.57-.87-1.04.1-.75 1.6-2.03 3.1-2.62 4.74l-5.48.2c-.98.02-1.12.11-.39.81 1.54 1.47 2.96 2.55 4.18 3.94-1.43 1.55-1.9 2.51-2.89 3.57-.71.77-.96 1.16.09 1.28 1.37.17 3.67.08 4.54.08.46 0 1.47 2.37 2.16 3.97.62 1.44.8 1.5 1.68.24 1.08-1.56 1.71-3.06 2.74-4.53l5.49-.2a2.06 2.06 0 0 0-.4-1.15c-.28-.4-.67-.73-1-1.1-.44-.46-.8-.81-1.07-1.11-.58-.65-.72-1.02-.31-1.71.2-.34.72-.86 1.13-1.39.84-1.08 2.18-2.52 1.01-2.67"/><path id="2kb5p" d="M359.77 1308.14c-.08 11.62-.15 41.61-.1 43.55.1 5.06.08 3.52.25 8.57 0 .2.15 4.53.03 4.79-.06.14-.07.13-.46.13h-3.07c-.71 0-.57-.74-.59-.93-.3-3.23-.27-6.66-.35-9.91l-.07-5.63c0-1.67.2-27.83.31-40.58a6.31 6.31 0 0 1-2.25-1.83c-2.78-3.44-1.8-7.22 2.21-9.39 1.9-1.02 3.57-.4 5.43.41 3.44 1.48 3.13 8.7-.5 10.46-.28.14-.57.26-.84.36"/><path id="2kb5q" d="M344.56 1271.78l.11 3.51c-6.18 0-9.13 3-9.11 5.69-.27 5.49.08 5.65.05 10.99-.01.76-.05 2.81-1.7 2.89-1.6.25-3.1-.03-4.56.05-2.58.24-3.02-3.55-.38-3.65 1.18-.22 1.95.16 3.19-.09-.29-4.52-.11-7.93-.13-11.2-.04-5.92 7.46-8.2 12.22-8.2.11 0 .25-.01.31.01"/><path id="2kb5r" d="M323.62 1321.6c.76-1.59 2.22-2.39 3.33-3.53.52-.54 1.11-1.03 1.67-1.54.78-.73 1.3-.88 2.1-.17a59.9 59.9 0 0 1 4.54 4.44c.72.79.44 1.8-.4 2.52l-4.21 3.62c-.75.63-.82 1.14-1.46.41-1.8-2.05-3.9-3.5-5.57-5.75"/><path id="2kb5s" d="M299.56 1317.24c1.74-.63 3.43-.16 5.1-.2.8-.03 1.6.03 2.39.06 1.12.03 1.62.3 1.7 1.4.13 2.2.16 4.4.06 6.59-.05 1.11-1.01 1.66-2.17 1.59l-5.82-.37c-1.04-.07-1.47.26-1.4-.75.19-2.82-.3-5.44.14-8.32"/><path id="2kb5t" d="M307.55 1340.1l6.4-.02c.85.03.77.5.76.56-.04 2.14-.08 2.7-.1 4.22.12 1.31.06 14.5.1 15.81.02.24-.01.47-.05.71 16.42.08 33.45.17 35.02.2.4-.02.4 1.2.41 1.54.03 2.5-1.2 1.94-2.09 1.98a12487.44 12487.44 0 0 0-68.8-.12c-5.82.08-10.27.25-16.1.2-.48 0-2.21.08-2.3.06-.19-.06-.47-.06-.47-.4v-2.7c0-.64 1.05-.52 1.3-.53 7.23-.42 14.51-.31 21.75-.37l24 .1c-.45-3.87-.28-15.8-.32-20.96a.5.5 0 0 1 .49-.28zm-52.43 25.42l-3.36.06c-.24 0-.84.26-.87-.42l-.06-2.65c-.02-.36.05-.68.23-.75.63-.26 2.73-.14 4.5-.09.87.03.66.98.72 2.31.06 1.44-.67 1.53-1.16 1.54zm-7.28-2.12c.01 1.33.25 2.27-.52 2.35-1.58.18-3.46.43-4.03.22-.16-.06-.48-.07-.48-.44l-.01-2.84c0-.68.62-.59.83-.6l3.1-.14c.44-.02 1.1.01 1.11 1.45zm46.27-23.02c.34-.07.68-.17 1.02-.19.97-.05 1.95-.05 2.93-.1.7-.04 2.73.01 2.91.99.07.4.16.81.15 1.21-.06 1.3.3 8.25.19 9.56 0 1.53.05 2.08.1 4.23 0 .06.08.53-.78.55-2.13 0-4.26 0-6.4-.02a.5.5 0 0 1-.48-.27c.05-6.18-.5-15.77.36-15.96z"/><path id="2kb5u" d="M297.04 1264.68c-1.87-1.43-3.21-2.78-4.93-3.94-1.15-.78-1.47-.94-1.6.67-.3 4.16 0 7.16.04 10.36 1.7 0 3.27-.02 4.83.03 2.38.06 4.75.25 7.13.25 3.92 0 7.78-.15 11.7-.24.55-.02.86 0 1.05-.02.17-3.1-.1-6.77-.06-10.16.03-1.64.18-2.12-1.53-.75-1.13.9-2.74 2.68-3.84 3.62-1.16 1-1.08.87-2.08-.14-.9-.9-1.57-1.86-2.43-2.8-1.4-1.52-2.08-2.83-3.87-1.12-1.49 1.43-2.78 2.63-4.41 4.24"/><path id="2kb5v" d="M315.26 1271.8l-.01 3.47c-6.19 0-9.1 3.01-9.07 5.7-.27 5.5.08 5.65.05 11-.01.76-.05 2.81-1.7 2.88-1.6.26-3.1-.03-4.56.05-2.58.25-3.02-3.54-.38-3.65 1.18-.21 1.95.17 3.19-.08-.29-4.53-.11-7.93-.13-11.21-.04-5.91 7.47-8.15 12.22-8.15.08.02.31-.03.39 0"/><path id="2kb5w" d="M257.39 1280.92l1.63 3.08c5.25-3.23 9.51-2.27 10.93.02 3.17 4.52 2.97 4.83 5.85 9.35.42.65 1.55 2.37 2.99 1.57 1.5-.62 2.61-1.64 3.9-2.34 2.32-1.14.66-4.59-1.63-3.3-1.12.44-1.57 1.16-2.75 1.6-2.19-4-4.16-6.79-5.9-9.58-3.14-5.04-10.7-3.05-14.74-.57-.06.06-.23.11-.28.17"/><path id="2kb5x" d="M291.68 1304.4c-1.19-1.45-2.88-2.5-5.45-3.23a23.18 23.18 0 0 0-19.67 3.17 10.2 10.2 0 0 0-4.7 7.44c-1.18 7.68-.98 15.52-.3 23.25.11 1.4 1.16 1.57 2.39 1.64 6.05.33 11.64-.34 17.63-.11 1.16.04 1.6.08 1.45-1.12-.2-1.61-.16-2.75-.2-4.5-.04-1.52-.77-.94-2.11-1.22-2.75.1-8.37.2-11.36.04-.36-4.83-.65-11.09.2-15.72.8-4.45 4.67-6.7 8.93-6.9 4.8-.24 8.77.76 9.59 6.3-.85 7.01-1.03 14.75-.44 21.6.12 1.4 1.14 1.56 2.35 1.63 5.94.33 11.43-.34 17.3-.11 1.15.04 1.57.08 1.43-1.12-.2-1.61-.16-2.24-.2-4-.04-1.5-.75-.92-2.07-1.2-2.7.09-8.21.2-11.15.04-.05-.58-.26-4.44-.25-5.12.07-3.18.05-6.7.45-9.98.37-3.13.88-7.55 5.27-7.55 2.05 0 8.43.14 9.32.84 1.62 1.26 3.5 2.06 3.71 6.38.16-1.4.33-2.76.54-4.1.37-2.4 1.4-4.45 3.05-6.12-1.18-1.57-2.87-2.7-5.53-3.46-6.74-1.92-12.93-1.87-18.8 2.13-.5.35-.96.72-1.38 1.1"/></defs><g><g transform="translate(-232 -1240)"/><g transform="translate(-232 -1240)"><use fill="#2177b8" xlink:href="#2kb5a"/></g><g transform="translate(-232 -1240)"><use fill="#2177b8" xlink:href="#2kb5b"/></g><g transform="translate(-232 -1240)"><use fill="#2177b8" xlink:href="#2kb5c"/></g><g transform="translate(-232 -1240)"><use fill="#2177b8" xlink:href="#2kb5d"/></g><g transform="translate(-232 -1240)"><use fill="#2177b8" xlink:href="#2kb5e"/></g><g transform="translate(-232 -1240)"><use fill="#2177b8" xlink:href="#2kb5f"/></g><g transform="translate(-232 -1240)"><use fill="#2177b8" xlink:href="#2kb5g"/></g><g transform="translate(-232 -1240)"><use fill="#2177b8" xlink:href="#2kb5h"/></g><g transform="translate(-232 -1240)"><use fill="#2177b8" xlink:href="#2kb5i"/></g><g transform="translate(-232 -1240)"><use fill="#2177b8" xlink:href="#2kb5j"/></g><g transform="translate(-232 -1240)"><use fill="#2177b8" xlink:href="#2kb5k"/></g><g transform="translate(-232 -1240)"><use fill="#2177b8" xlink:href="#2kb5l"/></g><g transform="translate(-232 -1240)"><use fill="#2177b8" xlink:href="#2kb5m"/></g><g transform="translate(-232 -1240)"><use fill="#2177b8" xlink:href="#2kb5n"/></g><g transform="translate(-232 -1240)"><use fill="#ec7900" xlink:href="#2kb5o"/></g><g transform="translate(-232 -1240)"><use fill="#ec7900" xlink:href="#2kb5p"/></g><g transform="translate(-232 -1240)"><use fill="#ec7900" xlink:href="#2kb5q"/></g><g transform="translate(-232 -1240)"><use fill="#ec7900" xlink:href="#2kb5r"/></g><g transform="translate(-232 -1240)"><use fill="#ec7900" xlink:href="#2kb5s"/></g><g transform="translate(-232 -1240)"><use fill="#ec7900" xlink:href="#2kb5t"/></g><g transform="translate(-232 -1240)"><use fill="#ec7900" xlink:href="#2kb5u"/></g><g transform="translate(-232 -1240)"><use fill="#ec7900" xlink:href="#2kb5v"/></g><g transform="translate(-232 -1240)"><use fill="#ec7900" xlink:href="#2kb5w"/></g><g transform="translate(-232 -1240)"><use fill="#ec7900" xlink:href="#2kb5x"/></g></g></svg>