<svg xmlns="http://www.w3.org/2000/svg" xmlns:xlink="http://www.w3.org/1999/xlink" width="145" height="145" viewBox="0 0 145 145"><defs><path id="lzkha" d="M732.17 910.13c-1.94 1.34-4.97.93-6.64.15-.87-.63-1.08-1.87-1.28-2.83-.33-1.54-.43-1.23-1.7-1.44-.78-.14-1.6-.03-2.4-.05-1.75-.02-3.11-1.21-3.23-2.93-.08-1.25-.05-2.5-.03-3.75.04-2.52-1.83-2.94-3.63-3.83-1.97-.98-3.37-2.72-2.82-4.98.65-2.65.17-6.23.67-8.9.27-1.49.72-1.9 1.67-.82 7.28 8.3 14.24 19.7 19.39 29.38"/><path id="lzkhb" d="M709.26 856.67c.28 15.77-.68 31.65-1.03 47.42-.25 11.17-.64 16.99.3 28.09.1 1.27-1.81 1.12-2.87.92-.85-.15-1.09-.14-1.1-.92-.29-11.08-.45-17.06-.4-28.15 0-2.71.22-5.43.1-8.14-.7-16.26 1.34-33.08 1.17-49.47-1.7-.02-4.99-.2-6.7-.2-1.03-.01-1.09-.1-1.1-1-.03-4.03.13-11.36.78-15.68 1.81 2.87 3.07 9.01 4.4 12.07 1.53-2 2.29-8.35 3.24-11.57.27-.92.82-.55.98.25.45 2.14 1.06 8.59 1.49 10.36.48.74.72.62 1.26-.07.94-1.21 3.94-8.17 4.43-9.72.47-1.47 1.1-.46 1.05.58-.19 3.99-.47 9.4-.47 13.38 0 1.8.1 1.73-1.8 1.72-.9 0-3-.09-3.9-.1.08 1.21.15 9.02.17 10.23z"/><path id="lzkhc" d="M727.54 877.52c.76 2.5-.22 4.72-2.16 5.34-1.15.37-2.86-.22-3.81-.94-1-.77-.69-1.87-1.3-2.59-.82.02-1.9.08-2.52-.14a3.85 3.85 0 0 1-1.75-1.32c-1-1.39-1.24-2.09.31-3.97-2.58-.74-3.3-2.7-2.92-5.38a3.76 3.76 0 0 1 2.28-2.87c1.64-.65 3.51-.46 5.2-.7-.52-3.99-.45-8.15-.63-11.1-.23-3.9 3.67-7.7 7.68-7.98 2.7-.33 2.36 3.4.68 3.36-2.91.3-5.04 2.58-4.75 5.28.25 4.71.23 6.56.53 10.17.98-.22 2.09-.27 3.09-.24 4.7.36 5.15 3.73 2.77 6.65-.25.3-.56.55-.9.88.34.4.65.75.93 1.1 1.9 2.37-.4 4.7-2.73 4.45"/><path id="lzkhd" d="M709.14 852.68c.77 2.71.66 5.11.4 7.85-3.02 2.7-10.58 9.02-12.14 9.76-.4.5-.38.8.18 1.18 2.5 1.67 3.6 2.46 6 4.3.15.11.6.76.85.94-.12 3.77-.36 7.03-.28 10.75-3.84-3.6-6.52-5.76-15.68-12.59-1.24-1.71-1.86-2.73-.72-4.32 4.15-5.76 13.53-13.52 19.6-17.01.52-.3 1.07-.52 1.8-.86"/><path id="lzkhe" d="M719.91 932.33c.18-.22.3-.57.35-1.12.4-5.15.34-13.3.76-18.44-1.94-.5-4.06-.33-6.06-.41l-1.54.04-.18 10.6c.09 2.75-.13 6.5-.07 9.28-.19.8 6.56 1.1 6.74.05"/><path id="lzkhf" d="M723.94 912.5l7.14-.19c.34 1.35.1 3.1.01 4.5-.06 1.04.03 2.08-.04 3.11-.14 2.25-.09 4.5-.08 6.74 0 .43-.07.86-.16 1.28-.04.17-.2.39-.36.45-.45.18-.93.4-1.4.42-1.15.08-2.3.1-3.44-.12l-.37-.07c-.89-.22-1.17-.52-1.22-1.37-.12-2.04-.1-4.16.04-6.2.2-2.92-.1-5.58-.12-8.55"/><path id="lzkhg" d="M717.32 858.26c-1.87.98-4.24.44-4.43-2.08-.14-2 .96-2.67 2.31-2.8 1.34-.12 3.09.49 3.11 2.33.01 1-.1 2-1 2.55"/><path id="lzkhh" d="M731.5 857.6c-.71 1.02-1.7 1.54-3.23.93-1.72-.7-2.1-4.03-.58-4.84.83-.43 1.57-.78 2.47-.37 1.91.88 2.49 2.6 1.33 4.28"/><path id="lzkhi" d="M731.66 880.08c-.83 1.1-2.58 2.09-3.08 3.95-.2.73 7.79 8.08 9.02 9.29.37.47.29.75-.24 1.1-1.63 1.57-3.45 3.93-5.7 5.65-.24.18-.83.66-1.2 1.09-.46.53-.25.74.08 1.3.67 1.12 1.79 2.48 2.64 3.82.63 1 .77 1.26 1.85.27 3.2-2.98 6.79-7.42 9.57-9.8 1.5-1.27 2.21-3.13.84-5.04-4.66-4.78-6.45-8.13-11.35-12.01-.95-.53-1.38-.98-2.43.38"/><path id="lzkhj" d="M702.05 935.85a298 298 0 0 1 .22 14.67c-1.3.22-2.44.1-3.46-.24-.06-5.48-.14-11.9-.14-17.32 0-.57.75-.46.93-.48.4-.03 11.88.07 12.29.06 7.9-.28 10.97-.04 18.82.16.28-.02.28 1.1.29 1.42.02 2.28-.86 1.78-1.5 1.81-.39.03-.8.02-1.14.01-2.34-.07-5.65.08-7.99.12-5.04.09-4.38-.4-9.42-.27-.12 0-5.37.05-8.9.06zm36.12-1.92c-.1 1.2.04 2.04-.64 2.06-1.39.04-3.03.12-3.52-.12-.14-.06-.41-.1-.38-.42l.2-2.55c.05-.6.58-.47.77-.47l2.71.11c.39.02.96.1.86 1.4zm2.41.14c.03-1.29.67-1.33 1.1-1.3l2.95.14c.2.01.73-.18.73.43l-.11 2.37c0 .33-.08.6-.25.66-.56.2-2.39-.03-3.93-.19-.75-.07-.51-.91-.49-2.1z"/><path id="lzkhk" d="M702.55 950.47c2.6-.55 3.6-2.07 4.72-4.26.38-.72.45-.96.87-.29 1.34 2.19 3.55 4.92 7.34 4.9 3.56-.03 4.92-3.08 6.6-5.61.13-.18.2-.4.46-.1 1.66 2.55 2.9 4.42 6.25 4.74 2.7.26 4.75-2.32 5.8-4.4.4-.84 1.16-.44 1.58.33 1.81 3.38 8.12 5.93 12.8-1.12.15-.34.38-.32.41-.03.12 1.2 0 4 .1 4.99-3.33 5.26-9.92 5.88-13.95.53-4.38 5.24-8.83 4.1-13.1.45-3.03 3.46-6.15 5.42-11.02 3.16-1.46-.41-1.98-1.22-3.6-2.67-4.16 4.75-11 5.18-14.89-.43-.32-.47-.24-.43-.24-.97 0-.7 0-2.09.13-3.15.09-.68.08-.34.57.06 2.75 2.28 5.14 4.71 9.17 3.87"/></defs><g><g transform="translate(-645 -820)"/><g transform="translate(-645 -820)"><use fill="#2177b8" xlink:href="#lzkha"/></g><g transform="translate(-645 -820)"><use fill="#2177b8" xlink:href="#lzkhb"/></g><g transform="translate(-645 -820)"><use fill="#ec7900" xlink:href="#lzkhc"/></g><g transform="translate(-645 -820)"><use fill="#ec7900" xlink:href="#lzkhd"/></g><g transform="translate(-645 -820)"><use fill="#ec7900" xlink:href="#lzkhe"/></g><g transform="translate(-645 -820)"><use fill="#ec7900" xlink:href="#lzkhf"/></g><g transform="translate(-645 -820)"><use fill="#2177b8" xlink:href="#lzkhg"/></g><g transform="translate(-645 -820)"><use fill="#2177b8" xlink:href="#lzkhh"/></g><g transform="translate(-645 -820)"><use fill="#ec7900" xlink:href="#lzkhi"/></g><g transform="translate(-645 -820)"><use fill="#ec7900" xlink:href="#lzkhj"/></g><g transform="translate(-645 -820)"><use fill="#2177b8" xlink:href="#lzkhk"/></g></g></svg>