<svg xmlns="http://www.w3.org/2000/svg" xmlns:xlink="http://www.w3.org/1999/xlink" width="145" height="145" viewBox="0 0 145 145"><defs><path id="9d3ca" d="M1175.9 942.19c-2.67-11.77-4.06-20.64-5.08-21-.4-.15-.82-.33-1.2-.37-1.1-.1-2.17-.1-3.26-.2-.79-.06-3 .04-2.78 1.9.09.76.16 1.54.35 2.3.62 2.5 1.1 4.91 1.78 7.41 1.11 4.07.84 5.54 1.7 9.62.03.11.1.85 1.05.9l7.03-.03c.24.01.38-.17.41-.53"/><path id="9d3cb" d="M1105.08 863.67c14.6-.14 27.64-1.12 42.23-1.25 11.13-.1 23.81.65 34.95.55 4.69 0 4.45 8.58 4.44 18.14 0 7.84.91 18.52.91 25.27 0 .85-.18 1.2-1.04 1.22h-6.8c-.75-.01-1.07-.32-1.07-1.11v-.08-.22-.21-.22-.22-.21-.12c0-11.34-1.4-22.69-1.4-34.03-24.15-.58-43.84-.72-67.96.7-1.54 9.43-.24 22.77 0 32.63v1.17c0 1.71-6.34 1.75-7.84 1.92-.75-.01-1.06-.32-1.07-1.11v-.08-.22-.21-.22-.12-.1-.21-.12-34.08c0-2.56 2.1-7.46 4.65-7.46"/><path id="9d3cc" d="M1138.3 875.56l18.76 18.75c.53.54.37.91-.32.9l-8.03-.29.28 8.03c.02.69-.35.85-.9.32l-18.74-18.75c-.54-.54-.37-.92.32-.9l8.03.29-.28-8.03c-.03-.7.35-.86.89-.32"/><path id="9d3cd" d="M1129.35 894.3l18.75-18.74c.54-.54.91-.37.9.32l-.29 8.03 8.03-.28c.69-.03.85.35.32.89l-18.75 18.75c-.54.53-.92.37-.9-.32l.29-8.03-8.03.28c-.7.02-.86-.35-.32-.9"/><path id="9d3ce" d="M1120.74 943.12l-1.9-.03c1.74-5.04 4.74-14.74 5.48-19.38.2-.55.33-1.12.48-1.65-2.6-.57-5-.69-8 .1-.33.09-.77.77-.93 1.26-.69 2.18-2.1 7.86-2.78 10.04-1.16 3.12-1.83 6.46-2.9 9.56h-1.56l-.31 1.09h12.14z"/><path id="9d3cf" d="M1147.31 936.18c-.04-6.87.55-12.06-.4-12.27-.36-.09-.74-.2-1.11-.22-1.07-.05-2.14-.06-3.22-.11-.77-.04-3 .02-3.2 1.1-.08.45-.18.9-.16 1.36.06 1.45 0 2.86.13 4.33.2 2.37-.4 3.23-.45 5.62 0 .07-.1.5.85.53l7.03-.02c.24 0 .42-.1.53-.32"/><path id="9d3cg" d="M1162.1 859.34c-2.68-11.77-4.07-20.64-5.1-21-.4-.15-.8-.33-1.2-.37-1.08-.1-2.16-.1-3.25-.2-.79-.06-3 .04-2.78 1.9.09.76.16 1.54.35 2.3.62 2.5 1.1 4.91 1.78 7.41 1.11 4.07.84 5.54 1.7 9.62.03.11.1.85 1.05.9l7.03-.03c.24.01.38-.17.41-.53"/><path id="9d3ch" d="M1138.41 839.3c-2.67 11.77-4.06 20.64-5.08 21-.4.15-.82.33-1.2.37-1.1.1-2.17.1-3.26.2-.79.06-3-.03-2.78-1.9.09-.76.16-1.54.35-2.3.62-2.5 1.1-4.9 1.78-7.41 1.11-4.06.84-5.54 1.7-9.62.03-.11.1-.85 1.05-.9l7.03.03c.24 0 .38.17.41.53"/><path id="9d3ci" d="M1092.48 942.63c11.08-.25 27.56-.3 38.3.06.57.02 26.48-.16 27.04-.12.25.02.79-.07.79.67v3.19c0 .4 0 .41-.19.48-.35.12-26.08-.03-26.35-.04-6.95-.17-14.63.46-21.6.35-3.22-.05-6.54.17-9.77.26-.48.01-7.36-.35-7.9-.37-.87-.05-1.32-.36-1.3-3.3.02-.93-.1-1.15.98-1.18zm-9.52.09l3.62.17c.25.01.97-.1.97.7l-.02 3.36c0 .44-.36.45-.55.52-.67.25-2.86-.05-4.7-.25-.9-.1-.63-1.2-.61-2.78.01-1.7.78-1.74 1.3-1.72zm-10.3-.33c2.07-.06 4.52-.2 5.25.1.2.1.29.46.27.9l-.07 3.13c-.04.8-.73.5-1 .5l-3.93-.08c-.57 0-1.43-.12-1.36-1.82.07-1.57-.17-2.7.84-2.73z"/><path id="9d3cj" d="M1190.93 912.14c.03 5.1-.42 5.66-1.3 5.73-.54.05-7.4.66-7.9.64-3.22-.16-6.54-.54-9.77-.44-6.96.2-22.35-.9-29.3-.61-.28.01-45.65.28-46 .07-.19-.12-.18-.13-.18-.84v-5.53c0-1.3.54-1.14.78-1.17.57-.07 46.12.25 46.68.21 10.74-.6 34.94-.54 46.02-.1 1.07.05.96.43.97 2.04"/></defs><g><g transform="translate(-1059 -820)"/><g transform="translate(-1059 -820)"><use fill="#ec7900" xlink:href="#9d3ca"/></g><g transform="translate(-1059 -820)"><use fill="#a4199e" xlink:href="#9d3cb"/></g><g transform="translate(-1059 -820)"><use fill="#a4199e" xlink:href="#9d3cc"/></g><g transform="translate(-1059 -820)"><use fill="#ec7900" xlink:href="#9d3cd"/></g><g transform="translate(-1059 -820)"><use fill="#ec7900" xlink:href="#9d3ce"/></g><g transform="translate(-1059 -820)"><use fill="#ec7900" xlink:href="#9d3cf"/></g><g transform="translate(-1059 -820)"><use fill="#ec7900" xlink:href="#9d3cg"/></g><g transform="translate(-1059 -820)"><use fill="#ec7900" xlink:href="#9d3ch"/></g><g transform="translate(-1059 -820)"><use fill="#ec7900" xlink:href="#9d3ci"/></g><g transform="translate(-1059 -820)"><use fill="#a4199e" xlink:href="#9d3cj"/></g></g></svg>