<svg xmlns="http://www.w3.org/2000/svg" xmlns:xlink="http://www.w3.org/1999/xlink" width="145" height="145" viewBox="0 0 145 145"><defs><path id="o7pja" d="M645 1240h145v145H645z"/><path id="o7pjb" d="M723.8 1297.57l.55-.35-.03-.09zm-47.15 11.58c.64-.55.38-.6.36-1.52-.04-1.27-.3-2.25-.08-3.83.16-1.18.7-2.44-.35-1.82-2.66 1.61-5.68 3.94-6.68 5.55a13.2 13.2 0 0 0-1.4 10.78 10.94 10.94 0 0 0 2.02 3.8 16.04 16.04 0 0 0-5.33 14.68 15.65 15.65 0 0 0 3.75 7.78c3.69 4.2 10.15 7.32 20.06 7.58 3.7 5 9.97 7.18 15.92 7.99-.06-.15-.1-.3-.14-.45-.1-.24-.18-.48-.23-.73v-.03c-.2-.38-.3-.77-.33-1.17-.12-.36-.2-.71-.2-1.14v-2.05a3.23 3.23 0 0 1-.1-.53c-.05-.16-.1-.31-.13-.47-3.63-.7-6.24-1.88-8.06-3.32a8.84 8.84 0 0 1-3.05-4.18 7.35 7.35 0 0 1-.2-3.92 6.11 6.11 0 0 1 1.85-2.7c-2.01-3.5-1.96-2.98-4-4.74-2 1.3-3.26 3.72-3.78 5.99a13.78 13.78 0 0 0-.22 4.96c-6.39-.6-10.53-2.68-12.87-5.34a9.26 9.26 0 0 1-2.24-4.6 9.62 9.62 0 0 1 5.81-10.37c.63-.26.87-.15.9-.99.03-1.8-.03-2.43.01-4.44.02-.86.12-.82-.55-.97-1.25-.28-2.7-1.33-3.09-2.57a6.83 6.83 0 0 1 .75-5.44 8.98 8.98 0 0 1 1.6-1.79z"/><path id="o7pjc" d="M697.34 1272.66c-.08-5.23 2.52-9.16 6.53-11.8 2.95-1.94 6.7-3.1 10.63-3.47 3.83-.36 7.88.02 11.55 1.14 6.74 2.06 12.3 6.55 13.53 13.52 3.09.07 6.2.8 9.11 2.5 3.6 2.1 6.82 5.66 9.2 11.29.63 1.45.86 3.23.77 5.16-.16 3.73-1.51 8.33-3.37 12.23-1.92 4.01-4.5 7.45-7.11 8.78a25.55 25.55 0 0 1-1.46 5.49c-2.92 7.52-9.68 14.89-20.68 14.89-9.47 0-15.7-2.22-19.61-5.3a16.25 16.25 0 0 1-3.05-3.11c-9.9-.27-16.37-3.4-20.06-7.59a15.65 15.65 0 0 1-2.99-15.82 16.04 16.04 0 0 1 4.57-6.64 10.94 10.94 0 0 1-2.03-3.8 13.27 13.27 0 0 1 1.41-10.78c2.26-3.64 6.47-6.5 13.06-6.69zm52.47 27.78c1.53-3.2 2.63-6.86 2.75-9.7.05-1-.03-1.82-.26-2.36-1.81-4.26-4.11-6.87-6.62-8.34a13.5 13.5 0 0 0-7.96-1.63 21.31 21.31 0 0 0-12.6 5.77c-1.73 1.7-2.68 4.12-2.6 5.37.05.45.02.9-1.19.94-1.33.03-1.78-.03-4.12.17-.54.05-.6-.08-.73-.68a14.2 14.2 0 0 1-.15-1.37c-.23-3.2 1.57-6.02 4.58-9a27.55 27.55 0 0 1 12.53-6.89c-1-4.06-4.68-6.79-9.11-8.14a24.4 24.4 0 0 0-9.28-.9 17.54 17.54 0 0 0-7.9 2.52c-2.78 1.82-4.35 4.77-3.36 8.85.2.67.3 1.12-.25 1.52-.79.58-.98.7-2.6 2.17-.41.39-.49.36-1.06.3-5.67-.48-8.96 1.31-10.45 3.72a6.78 6.78 0 0 0-.75 5.44c.39 1.24 1.84 2.3 3.09 2.57.67.15.57.11.55.97-.04 2.01.02 2.63-.02 4.44-.02.84-.26.73-.89 1a9.62 9.62 0 0 0-5.81 10.37c.27 1.6.99 3.18 2.24 4.6 2.34 2.66 6.48 4.73 12.87 5.33-.24-1.75-.13-3.45.22-4.96a10.4 10.4 0 0 1 2.88-5.28c.29-.27.6-.5.9-.7 2.04 1.75 1.99 1.24 4 4.73a6.11 6.11 0 0 0-1.85 2.7 7.34 7.34 0 0 0 .2 3.92 8.84 8.84 0 0 0 3.05 4.19c2.94 2.3 7.94 3.98 15.93 3.98 7.95 0 12.87-5.4 15-10.91a18.2 18.2 0 0 0 1.2-5.08c.12-1.45.01-2.68-.3-3.56-.18-.49-1.97-1.03-2.25-1-.12-3.1-.07-3.46.24-6.06 3.4-.3 6.52 1.6 7.7 4.79a25.5 25.5 0 0 0 2.18-3.8z"/><path id="o7pjd" d="M733.3 1365.16l20.15.32 10.68-.08c.4.02 2.03-.16 2.03.8v4.09c0 .52.01.53-.3.61-.55.16-10.03-.05-10.47-.06-11.06-.23-31.6-.25-42.67-.41-5.13-.07-10.42-.32-15.54-.2-.77.01-1.66.01-2.53-.03-1.39-.06-3.3.77-3.26-3 0-.5.03-2.37.64-2.33 13.7-.26 27.47-.05 41.27.3zm-53.78-.54l4.64.22c.32.03 1.24-.12 1.24.9l-.03 4.32c0 .56-.46.57-.7.66-.87.33-3.67-.06-6.03-.33-1.16-.13-.8-1.55-.79-3.56.03-2.19 1-2.24 1.67-2.21zm-13.22-.43c2.65-.09 5.8-.25 6.74.14.27.11.37.58.34 1.15l-.09 4c-.05 1.04-.94.65-1.3.65l-5.03-.1c-.74-.02-1.84-.16-1.73-2.34.09-2.02-.23-3.46 1.07-3.5z"/><path id="o7pje" d="M714.97 1367.84c-.04.6 1.83.62 2.33.62 3.78.05 2.94-1.81 3-3.15.05-.84.05-1.7.03-2.44-.11-4.94.13-10.04.2-15 .17-10.68.18-30.5.41-41.17.01-.42.23-9.57.07-10.1-.09-.3-.1-.28-.62-.28l-4.1-.01c-.94 0-.76 1.58-.78 1.96l.07 10.3-.31 19.45a891.2 891.2 0 0 0-.3 39.82"/><path id="o7pjf" d="M716.54 1319.95c-.16.1 1.07 1.5 1.4 1.88 2.49 2.84 2.35 1.81 2.7 1.57.21-.16.4-.34.56-.52 1.03-1.16 2.34-2.1 3.5-3.12 2.5-2.22 6.95-6.54 9.49-8.7.1-.08 2.29-1.92 2.3-2.16.01-.12 0-.13-.34-.52l-2.7-3.07c-.63-.72-.86-.24-.97-.17l-2.25 2.31-4.57 4.02a87.33 87.33 0 0 0-9.12 8.48"/><path id="o7pjg" d="M719.71 1306.56c.16.1-1.07 1.5-1.4 1.88-2.48 2.84-2.35 1.81-2.69 1.57-.21-.16-.4-.34-.56-.52-1.04-1.16-2.34-2.1-3.5-3.12-2.5-2.22-6.95-6.53-9.5-8.7-.1-.08-2.28-1.92-2.3-2.16 0-.12 0-.13.34-.52l2.71-3.07c.63-.72.86-.24.96-.17l2.26 2.31 4.57 4.02c3.2 2.65 6.32 5.4 9.11 8.48"/><path id="o7pjh" d="M715.38 1350.14c-.16.1 1.07 1.5 1.4 1.89 2.49 2.84 2.35 1.8 2.7 1.56.21-.15.4-.34.56-.52 1.03-1.16 2.34-2.1 3.5-3.12 2.5-2.21 1.58-1.64 4.12-3.8.1-.09 2.3-1.93 2.31-2.17.01-.12 0-.13-.34-.52l-2.7-3.07c-.64-.72-.87-.24-.97-.17l-2.26 2.31c-4.63 4.08-4.15 3.01-8.32 7.61"/><path id="o7pji" d="M702.68 1366.77c-.04.25 1.83.33 2.33.35 3.78.17 2.93-.64 2.98-1.2.04-.35.03-.71 0-1.02-.13-2.08.07-4.21.11-6.28.09-4.48-.12-3.06.04-7.53 0-.17-.27-13.04-.43-13.27-.09-.12-.1-.12-.61-.14l-4.1-.16c-.95-.04-.76.63-.78.8l.57 13.35c-.18 8.26-.63 6.82-.11 15.1"/><path id="o7pjj" d="M753.67 1332.25c.08 5.23-2.52 9.17-6.53 11.8a22.36 22.36 0 0 1-8.4 3.17v-4.47c0-.19-.02-.38-.05-.56a4.55 4.55 0 0 0-.3-1.42l-.02-.06a16.5 16.5 0 0 0 5.5-2c2.77-1.82 4.34-4.77 3.36-8.84-.2-.68-.31-1.13.24-1.53.79-.58.98-.7 2.6-2.17.42-.38.49-.35 1.06-.3 5.67.49 8.96-1.3 10.45-3.72a6.84 6.84 0 0 0 .75-5.44c-.38-1.24-1.84-2.3-3.09-2.57-.67-.15-.57-.1-.55-.97.04-2-.02-2.63.02-4.44.02-.84.26-.73.89-.99a9.62 9.62 0 0 0 5.81-10.37 9.26 9.26 0 0 0-3.63-5.85c-.82-.57-.7-.4-.83-1.44a26.53 26.53 0 0 0-1.38-5.76c-.5-1.33-.11-1.05 1.16-.46 3.12 1.45 5.5 3 6.96 4.66a15.65 15.65 0 0 1 3.75 7.79 16.04 16.04 0 0 1-5.33 14.67c.9 1.08 1.59 2.38 2.03 3.8a13.2 13.2 0 0 1-1.41 10.78c-2.26 3.64-6.47 6.5-13.06 6.7"/><path id="o7pjk" d="M734.47 1366.52c-.04.41 1.83.55 2.34.59 3.77.27 2.92-1.1 2.97-2.03.04-.6.03-1.2.01-1.73-.14-3.5.06-7.08.1-10.58.09-7.54-.12-5.16.04-12.68 0-.3.15-6.75 0-7.14-.1-.21-.1-.2-.62-.24l-4.1-.27c-.95-.06-.76 1.07-.78 1.34l.15 7.29c-.18 13.92-.63 11.49-.1 25.45"/><path id="o7pjl" d="M738.87 1358.71c.16.1-1.07 1.5-1.4 1.89-2.48 2.84-2.35 1.8-2.69 1.56-.21-.15-.4-.34-.56-.51-1.04-1.17-2.34-2.1-3.5-3.13-2.5-2.21.17.12-2.37-2.04-.1-.09-2.3-1.93-2.3-2.17-.02-.12 0-.13.33-.52l2.71-3.07c.63-.72.86-.24.96-.17l2.26 2.31c4.63 4.08 2.4 1.26 6.56 5.85"/><path id="o7pjm" d="M707.71 1337.83c.16.1-1.07 1.5-1.4 1.88-2.48 2.84-2.35 1.81-2.69 1.57-.21-.16-.4-.34-.56-.52-1.04-1.16-2.34-2.1-3.5-3.12-2.5-2.22-6.95-6.53-9.5-8.7-.1-.08-2.28-1.92-2.3-2.16 0-.12 0-.13.34-.52l2.71-3.07c.63-.72.86-.24.96-.17l2.26 2.31 4.57 4.02c3.2 2.65 6.32 5.4 9.11 8.48"/><path id="o7pjn" d="M686.41 1273.37l-2.92-2.96c1.2-.71 2.25-1.5 3.7-2.2-5.91-2.14-6.41-7.66-2.12-14.09.86 3.7 1.68 7.24 3.75 10.55-1.3-4.05-1.42-7.26 1.87-10.91.6-.66.82-.62.94.17.47 3.1.77 6.8 1.06 9.87 1.04-.42 2.18-.64 2.3-.06.08.3-.06.66-.45 1.04-1.82 1.75-4.37 3.72-6.18 5.48-.7.68-1.4 2.27-1.95 3.11"/></defs><g><g transform="translate(-645 -1240)"><use fill="#fff" xlink:href="#o7pja"/></g><g transform="translate(-645 -1240)"><use fill="#009e34" xlink:href="#o7pjb"/></g><g transform="translate(-645 -1240)"><use fill="#009e34" xlink:href="#o7pjc"/></g><g transform="translate(-645 -1240)"><use fill="#ec7900" xlink:href="#o7pjd"/></g><g transform="translate(-645 -1240)"><use fill="#ec7900" xlink:href="#o7pje"/></g><g transform="translate(-645 -1240)"><use fill="#ec7900" xlink:href="#o7pjf"/></g><g transform="translate(-645 -1240)"><use fill="#ec7900" xlink:href="#o7pjg"/></g><g transform="translate(-645 -1240)"><use fill="#ec7900" xlink:href="#o7pjh"/></g><g transform="translate(-645 -1240)"><use fill="#ec7900" xlink:href="#o7pji"/></g><g transform="translate(-645 -1240)"><use fill="#009e34" xlink:href="#o7pjj"/></g><g transform="translate(-645 -1240)"><use fill="#ec7900" xlink:href="#o7pjk"/></g><g transform="translate(-645 -1240)"><use fill="#ec7900" xlink:href="#o7pjl"/></g><g transform="translate(-645 -1240)"><use fill="#ec7900" xlink:href="#o7pjm"/></g><g transform="translate(-645 -1240)"><use fill="#ec7900" xlink:href="#o7pjn"/></g></g></svg>