<svg xmlns="http://www.w3.org/2000/svg" xmlns:xlink="http://www.w3.org/1999/xlink" width="145" height="145" viewBox="0 0 145 145"><defs><path id="il63a" d="M277.88 1784.08c-1 1.91-3.11 2.91-4.75.9-1.29-1.6-.85-2.94.2-3.84 1.06-.9 2.87-1.34 3.97.19.6.84 1 1.76.58 2.75zm7.43-8.13c-1 1.91-3.1 2.9-4.74.9-1.3-1.6-.86-2.94.2-3.84 1.06-.9 2.87-1.34 3.97.19.6.84.99 1.76.57 2.75zm-2.64-22.18c0 1.22-.5 2.2-2.07 2.55-1.77.4-3.95-2.07-3.17-3.56.42-.81.82-1.5 1.78-1.68 2.02-.37 3.44.7 3.46 2.69zm24.37-1c-.6.04-2.26-.35-2.22-2.27.04-2.3.15-5.14.1-7.01-.14-6.38.1-9.97.18-16.35-3.57 4.81-9.82 9.82-16.34 16.95-1.23 1.34-2.04 1.1-3.3-.14-.94-.92-2.78-1.64-3.67-2.63-1.04-1.16-1.04-1.88-.07-3.2 5.14-5.85 16.71-16.52 24.57-26.23 3.4-4.19 6.73-2.84 6.73 1.03v33.23c4.4-.19 12.14-.16 17.3 0v-29.54c0-3.87 5.23-7.01 8.48-2.71 7.43 9.8 13.87 20.5 19 26.35.97 1.33.97 2.05-.07 3.2-.89 1-3.36 3.07-4.42 3.48-1.26 1.24-1.77 1.34-2.83-.16-5.02-7.13-8.3-14.3-12.23-19.1.07 6.37.1 8.3-.05 14.68-.04 1.87.04 4.34.11 6.64.1 3.11-1.33 3.79-4.07 3.78-8.49-.01-18.72-.5-27.2 0zm-49.8 23.1c-1.7-1.71-3.2-3.24-4.63-4.7 1.9-1.13 3.56-2.38 5.86-3.49-9.38-3.4-10.18-12.17-3.36-22.38 1.37 5.86 2.67 11.49 5.96 16.75-2.05-6.43-2.25-11.54 2.98-17.33.94-1.04 1.3-.98 1.5.27.74 4.93 1.21 10.8 1.68 15.68 1.63-.67 3.45-1.01 3.66-.1.1.47-.1 1.05-.74 1.65-2.9 2.78-6.93 5.92-9.8 8.71-1.12 1.09-2.22 3.6-3.1 4.95zm14.02-75.74c1.78 4.01 2.23 10.06.91 10.88-1.23 1.7-4.69 4.08-6.3 5.8.08.67.95 2.11 1.1 3.05.23 1.38-.35 2.42-1.22 2.61-1.3.3-3.82-2.06-4.61-2.9a84 84 0 0 1-6.22 4.4c-1.94 1.22-3.43 1.46-5.9 1.03-2.6-.45-5.46-2.23-7.7-4.05 4.73-2.7 11.84-4.09 15.84-8.4-1.35-1.88-3.28-2.52-5.01-3.72-.65-.45-.65-.64-.1-1.22 1.29-1.34 3.04-2.05 4.7-3.22.66-.45.64-.42.96.31l2.8 6.43c3.46-2.6 6.82-5.1 8.94-10.66.57-1.5 1.13-1.87 1.8-.34zm48.06-19.37c.16 1.45-.34 2.68-2.18 3.3-2.07.7-4.98-2-4.23-3.88.4-1.03.8-1.91 1.93-2.24 2.39-.69 4.23.41 4.48 2.82zm-18.38 16.65c-1.74-1.76-1.39-3.42-.22-4.63 1.15-1.2 3.27-1.96 4.78-.25.82.94 1.4 2 1.02 3.23-.97 2.41-3.38 3.86-5.58 1.65z"/><path id="il63b" d="M308.12 1765.74c-.05-1.46.13-4.72.15-6.7 0-.97-.02-.81.95-.81h7.12c.9 0 1.13.2 1.27 1.07.88 5.66-.07 15.4-.07 17.58.2.36-.28 1.5-.62 1.56-2.25.3-5.15.15-7.43-.12-.85-.1-1.39-.33-1.44-1.79a142 142 0 0 1 .07-10.8zm59.86 22.14l-3.84.08c-.28 0-.96.3-1-.5l-.06-3.06c-.02-.43.06-.79.26-.88.72-.3 3.12-.16 5.14-.1 1 .04.76 1.14.82 2.68.08 1.66-.75 1.77-1.32 1.78zm-41.3-27.08c-.32-1.22.08-2.08.94-2.21 2.28-.34 5.17-.53 7.43-.14.33.05.82 1.51.63 1.97-.55 2.74.58 15.45-.3 22.63l-.05.41c7.71-.14 3.82.28 13.5.46.48-.03.49 1.4.5 1.78.02 2.89-1.44 2.24-2.5 2.29-.67.03-1.34.03-1.93.02-3.92-.09-7.95.09-11.88.15-8.45.1-22.28-.52-30.73-.36-.33 0-7.57.16-8 .04-.23-.06-.22-.07-.22-.47v-3.12c0-.73 1.25-.6 1.55-.6 10.25-.59 20.58-.35 30.79-.21 0-2.45-.22-6.92-.16-8.88-.17-4.71.32-9.26.43-13.76zm32.38 27.35c-1.8.2-3.94.5-4.6.25-.2-.07-.54-.08-.54-.5l-.02-3.3c0-.79.7-.67.95-.7l3.54-.15c.5-.03 1.26.01 1.27 1.68.02 1.54.29 2.63-.6 2.72z"/><path id="il63c" d="M294.51 1686.84c-1.66 1.78 1.77 4.53 3.1 3.18 3.54-3.57 8.45-3.35 10.35-.93 4.15 4.72 4.63 5.15 8.46 9.9.55.68 2.04 2.49 3.55 1.4 1.6-.91 2.71-2.21 4.06-3.17 2.18-1.25-.3-4.7-2.26-3.53-1.2.64-1.6 1.52-2.88 2.17-2.97-4.25-6.43-7.6-8.88-10.43-2.9-3.35-11.18-3.61-15.5 1.41"/></defs><g><g transform="translate(-232 -1660)"/><g transform="translate(-232 -1660)"><use fill="#db2e10" xlink:href="#il63a"/></g><g transform="translate(-232 -1660)"><use fill="#ec7900" xlink:href="#il63b"/></g><g transform="translate(-232 -1660)"><use fill="#ec7900" xlink:href="#il63c"/></g></g></svg>