<svg xmlns="http://www.w3.org/2000/svg" xmlns:xlink="http://www.w3.org/1999/xlink" width="145" height="145" viewBox="0 0 145 145"><defs><path id="u2wna" d="M1125.3 1251.75c-1.3.13-1.9 1.01-2.56 2.05-1.2 1.92 1.43 5.46 3.84 5.11 2.13-.3 2.93-1.54 3.05-3.17.2-2.68-1.58-4.26-4.33-4zm-14.86 16.35c.64-1.22.2-2.5-.47-3.65-1.24-2.08-3.71-1.03-5.16 0-1.46 1.04-2.07 2.44-.58 4.62 1.87 2.75 4.73 1.37 6.21-.97z"/><path id="u2wnb" d="M1144.4 1374.1c-4.71 0-9.34.03-14.09.1-7.6.1-15.24.08-22.84.24-.3 0-6.82.14-7.2.03-.2-.06-.2-.06-.2-.43v-2.86c0-.66.36-.38.64-.4.62-.03 7.55-.07 8.17-.09 10.31-.27 20.73-.98 31-.38-.04-3.34.24-6.9.14-10.07-2.77-.54-7.34-.34-11.89-5.8a17.18 17.18 0 0 1-2.89-5.67c-1.56-4.61-1.1-7.76-1.13-12.5 0-.96 1.44-.69 2.27-1.05 2.54-1.09 6-4.27 6.5-7.02.3-5.62-1.43-8.72-2.95-9.8-2.3-1.88-4.37-1.05-6.05-1.38-.89-.55-1.14-.98-1.13-1.97-.6-7.73.58-14.19 9.36-17.57 3.05-1.25 4.1-1.53 7.32-1.53v-3.47l.2-8.83c.05-3.9-.34-2.36-.27-6.26.05-2.55.29-5.1.38-7.65.06-1.67.05-3.34 0-5-.05-1.8 1.1-2 3.44-1.69.81.1 2.34.47 2.34 1.2 0 4.62-.54 3.83-.62 8.46-.09 4.68-.56 9.37-.59 14.04-.02 2.88.02 5.75.1 8.63 9.36.18 17.09 6.76 17.18 16.51.43 2.1.48 3.2.61 4.88.1 1.13-.77 1.1-3.07 1.8a9.08 9.08 0 0 0-5.93 7.45c-.63 8.44 3.6 8.42 9.34 9.43.1 1.25.19 2.47.31 3.68.46 4.6-.23 5.56-1.44 9.99-2 7.32-11.05 10.36-16.47 11.46.18 1.8-.2 3.62-.04 5.43-.1.48.49 8.09-.5 8.09zm11.56-2.62c.01 1.52.31 2.6-.67 2.7-2.02.2-4.4.49-5.14.24-.2-.07-.2-.08-.2-.5v-3.34c0-.78.36-.45.64-.47l3.95-.3c.57-.04 1.4.02 1.42 1.67zm8.6.86c.08 1.48-.76 1.58-1.32 1.58l-3.96-.02c-.28 0-.62.31-.66-.38l-.18-3c-.03-.37-.04-.38.17-.45.72-.27 3.11-.15 5.14-.1.99.03.75 1.01.81 2.37z"/><path id="u2wnc" d="M1102.68 1254.03c-3.19 1.61-.1 5.43 1.71 4.17 3.4-1.82 7.4-.87 9.07 2.3 3.73 6.26 4.52 7.24 7.88 13.48.49.9 1.81 3.27 3.76 2.35 2.02-.7 3.57-1.95 5.3-2.75 3.15-1.3 1.3-6.02-1.82-4.51-1.5.47-2.15 1.39-3.74 1.86-2.5-5.48-5.73-10.04-7.93-13.8-2.6-4.44-9.64-5.74-14.23-3.1zm48.6 19.05c-3.31-.73-8.42-1.2-11.76-1.1-2.9-.62-2.39 7.3-1.09 8.73 2.02.74 6.2-.04 8.31.3 2.3.38 5.62 1.18 6.19 7.8.25 2.94-.35 1.94-.13 4.82-.26 3.19 7.4 3.78 7.57-.32a90.4 90.4 0 0 0-.08-9.73c-.29-4.16-4.06-9.52-9.02-10.5zm-28.35 83.76c.13-1 .57-2.3-.2-3.6-.82-1.15-2.53-5.39-3.93-6.78-1.78-1.87-2.53.82-2.9 1.93-2.3 7-4 10.75-5.97 18.01-.03.17-.04.33-.05.49h9.69a10 10 0 0 0 .67-1.84c1.1-4.01 1.46-4.21 2.69-8.2zm-14.21-27.77c3.33.08 6.66-.08 9.99-.04 2.75.04 5.95-.03 8.7-.15.7-.04 1.4 0 2.09-.04 1.32-.1 30.37-.13 31.69-.27 1.36-.15 2.03.2 2.08-.86.02-.85.08-1.85.06-2.42-.12-.68-.09-.84-.97-.92-.7-.06-1.4-.09-2.08-.04-3.63.24-35.56.06-39.2.13-1.2.03-4-.02-6.26-.1l-.37-11.93c-.12-4.63-.12-5.51.62-10.09.68-4.2 3.04-7.73 6.88-9.34 2.7-1.13 5.11-1.4 8.35-1.64 1.4-.1 2.12-.87 2.32-2.26.27-1.84.05-4.31.05-5.42 0-1.57-.51-1.46-2.12-1.57-3.32-.22-7.32.09-10.57.62-3.29.53-8.26 3.52-10 6.55-2.23 3.86-3.9 7.64-4.3 11.95-.33 3.72-.55 5.53-.73 9.25-.2 4.37.7 9.23.6 13.6-.01.7.04 1.38.12 2.07.23 2.14.59 2.7 3.05 2.92z"/></defs><g><g transform="translate(-1059 -1240)"/><g transform="translate(-1059 -1240)"><use fill="#009e34" xlink:href="#u2wna"/></g><g transform="translate(-1059 -1240)"><use fill="#009e34" xlink:href="#u2wnb"/></g><g transform="translate(-1059 -1240)"><use fill="#ec7900" xlink:href="#u2wnc"/></g></g></svg>